<svg preserveAspectRatio="none" width="100%" height="100%" overflow="visible" style="display: block;" viewBox="0 0 41.0228 34.0858" fill="none" xmlns="http://www.w3.org/2000/svg">
<path id="svg_2" d="M36.4065 4.03575C33.4688 1.44875 29.5868 0 25.3902 0H15.5279C6.92462 0 0 6.10538 0 13.7629C0 20.5927 5.66556 26.3875 13.2196 27.3188C13.5344 29.078 13.4295 30.9407 12.9049 32.6998C12.7999 33.1137 12.9049 33.5276 13.3245 33.8381C13.7442 34.1486 14.2688 34.1485 14.6885 33.9416C17.3114 32.8033 20.8787 30.6302 22.872 27.4223H25.495C34.0982 27.4223 41.0228 21.317 41.0228 13.6595C40.9179 10.0376 39.2393 6.62276 36.4065 4.03575ZM20.459 21.731C19.6197 21.731 18.8853 21.0066 18.8853 20.1788C18.8853 19.351 19.6197 18.6266 20.459 18.6266C21.2983 18.6266 22.0328 19.351 22.0328 20.1788C22.0328 21.0066 21.2983 21.731 20.459 21.731ZM21.823 14.2804C21.823 14.2804 21.718 14.2804 21.718 14.3839V15.3152C21.718 15.7291 21.4033 16.143 20.9836 16.35C20.5639 16.557 20.0393 16.557 19.5148 16.35C19.0951 16.143 18.7803 15.7291 18.7803 15.3152V14.3839C18.7803 13.2456 19.6197 12.3143 20.8787 12.0038C21.718 11.7968 22.2427 11.0725 22.2427 10.3481C22.1377 9.41682 21.2984 8.69245 20.1443 8.69245C19.4098 8.69245 18.6755 9.10639 18.3607 9.62376C18.1508 10.0377 17.7312 10.2446 17.2065 10.3481C16.682 10.3481 16.1574 10.1411 15.9475 9.83076C15.6327 9.52032 15.6327 9.00295 15.8425 8.58895C16.6819 7.14026 18.3605 6.20888 20.249 6.20888C22.872 6.20888 25.0753 7.96807 25.1802 10.2446C25.2851 12.0038 23.9211 13.6595 21.8228 14.2804H21.823Z" fill="var(--fill-0, #C4703E)"/>
</svg>
