<svg preserveAspectRatio="none" width="100%" height="100%" overflow="visible" style="display: block;" viewBox="0 0 32 28" fill="none" xmlns="http://www.w3.org/2000/svg">
<path id="briefcase.fill" d="M10.3417 3.73711V5.12437H21.6724V3.73711C21.6724 3.1001 21.2344 2.68959 20.528 2.68959H11.472C10.7797 2.68959 10.3417 3.1001 10.3417 3.73711ZM15.9929 13.6886C10.4406 13.6886 5.1426 12.8392 0 10.6876V9.6542C0 6.66734 1.55408 5.12437 4.56336 5.12437H7.40309V3.60971C7.40309 1.34479 8.85828 0 11.2883 0H20.7117C23.1417 0 24.5969 1.34479 24.5969 3.60971V5.12437H27.4366C30.46 5.12437 32 6.66734 32 9.6542V10.6876C26.8574 12.8392 21.5594 13.6886 15.9929 13.6886ZM4.56336 28C1.55408 28 0 26.4712 0 23.4702V13.3771C4.29492 14.9484 8.166 15.6845 12.0795 15.9818V17.1001C12.0795 18.1759 12.7011 18.7705 13.789 18.7705H18.1969C19.2989 18.7705 19.9205 18.1759 19.9205 17.1001V15.9818C23.834 15.6845 27.7051 14.9484 32 13.3771V23.4702C32 26.4712 30.46 28 27.4366 28H4.56336Z" fill="var(--fill-0, #C4703E)"/>
</svg>
