<svg preserveAspectRatio="none" width="100%" height="100%" overflow="visible" style="display: block;" viewBox="0 0 29.3333 29.3333" fill="none" xmlns="http://www.w3.org/2000/svg">
<path id="call" fill-rule="evenodd" clip-rule="evenodd" d="M14.6667 29.3333C6.56957 29.3333 0 22.7638 0 14.6667C0 6.56957 6.56957 0 14.6667 0C22.7638 0 29.3333 6.56957 29.3333 14.6667C29.3333 22.7638 22.7638 29.3333 14.6667 29.3333ZM14.0954 16.4426C13.4372 17.1008 12.4437 17.2622 11.624 16.84C10.792 16.4301 9.79847 16.5916 9.15269 17.2374L6.94213 19.4479C6.86762 19.5224 6.80553 19.6218 6.76827 19.7336C6.64408 20.1185 6.84278 20.5284 7.22776 20.665L9.21479 21.3232C11.1273 21.9565 13.2261 21.4598 14.6418 20.044L20.5035 14.1823C21.8075 12.8783 22.1304 10.8789 21.3108 9.22721L20.3793 7.3768C20.3421 7.30229 20.2924 7.24019 20.2427 7.19052C19.9571 6.90488 19.4976 6.90488 19.1995 7.19052L16.8648 9.52526C16.2066 10.1835 16.0451 11.177 16.4674 11.9966C16.8896 12.8163 16.7158 13.8222 16.07 14.468L14.0954 16.4426Z" fill="var(--fill-0, #C4703E)"/>
</svg>
