<svg width="24" height="24" viewBox="0 0 24 24" fill="none" xmlns="http://www.w3.org/2000/svg">
<path d="M13.4424 10.9265C12.3577 9.97126 10.9244 9.43634 9.37483 9.43634H5.73336C2.55678 9.43634 0 11.6906 0 14.518C0 17.0398 2.0919 19.1794 4.88109 19.5233C4.9973 20.1728 4.95858 20.8606 4.76487 21.5101C4.72612 21.6629 4.76487 21.8158 4.91983 21.9304C5.07479 22.0451 5.26848 22.045 5.42344 21.9686C6.39191 21.5483 7.70904 20.746 8.44506 19.5615H9.41353C12.5901 19.5615 15.1469 17.3072 15.1469 14.4798C15.1081 13.1425 14.4883 11.8817 13.4424 10.9265ZM7.55411 17.4601C7.24421 17.4601 6.97303 17.1926 6.97303 16.887C6.97303 16.5813 7.24421 16.3138 7.55411 16.3138C7.864 16.3138 8.13518 16.5813 8.13518 16.887C8.13518 17.1926 7.864 17.4601 7.55411 17.4601ZM8.05771 14.7091C8.05771 14.7091 8.01897 14.7091 8.01897 14.7473V15.0912C8.01897 15.244 7.90275 15.3968 7.74779 15.4733C7.59283 15.5497 7.39914 15.5497 7.20546 15.4733C7.0505 15.3968 6.93428 15.244 6.93428 15.0912V14.7473C6.93428 14.327 7.24418 13.9831 7.70907 13.8685C8.01897 13.7921 8.21267 13.5247 8.21267 13.2572C8.17393 12.9133 7.86403 12.6459 7.43789 12.6459C7.16671 12.6459 6.89556 12.7987 6.77932 12.9897C6.70183 13.1426 6.54689 13.219 6.35318 13.2572C6.1595 13.2572 5.96579 13.1808 5.8883 13.0662C5.77208 12.9515 5.77208 12.7605 5.84955 12.6076C6.15945 12.0727 6.77927 11.7289 7.47657 11.7289C8.44503 11.7289 9.25856 12.3784 9.29729 13.219C9.33603 13.8685 8.8324 14.4798 8.05764 14.7091H8.05771Z" fill="#B70D18"/>
<path d="M23.6307 8.40474C23.6307 5.57733 21.1126 3.32306 18.0135 3.32306H14.4496C11.6216 3.32306 9.25856 5.23346 8.90991 7.79341H9.1036C12.9775 7.79341 16.0766 10.6208 16.0766 14.136V14.3652C16.7351 15.0148 17.5099 15.5497 18.3622 15.8936C18.5171 15.97 18.7108 15.9318 18.8658 15.8553C18.982 15.7407 19.0595 15.5879 19.0208 15.435C18.8271 14.7855 18.7496 14.0978 18.8658 13.4482C21.5775 13.0279 23.6307 10.8883 23.6307 8.40474Z" fill="#B70D18"/>
</svg>
