<svg width="40" height="40" viewBox="0 0 40 40" fill="none" xmlns="http://www.w3.org/2000/svg">
<circle cx="20" cy="20" r="20" fill="#AACEFF"/>
<path d="M11 10C11 9.44772 11.4477 9 12 9H28C28.5523 9 29 9.44772 29 10V29.4648C29 29.7992 28.8329 30.1114 28.5547 30.2969L26.5547 31.6302C26.2188 31.8541 25.7812 31.8541 25.4453 31.6302L23.5547 30.3698C23.2188 30.1459 22.7812 30.1459 22.4453 30.3698L20.5547 31.6302C20.2188 31.8541 19.7812 31.8541 19.4453 31.6302L17.5547 30.3698C17.2188 30.1459 16.7812 30.1459 16.4453 30.3698L14.5547 31.6302C14.2188 31.8541 13.7812 31.8541 13.4453 31.6302L11.4453 30.2969C11.1671 30.1114 11 29.7992 11 29.4648V10Z" fill="#386DF7"/>
<rect x="17" y="11" width="6" height="2" rx="1" fill="white"/>
<rect x="17" y="11" width="6" height="2" rx="1" fill="white"/>
<rect x="17" y="11" width="6" height="2" rx="1" fill="white"/>
<rect x="14" y="16" width="12" height="2" rx="1" fill="white"/>
<rect x="14" y="16" width="12" height="2" rx="1" fill="white"/>
<rect x="14" y="16" width="12" height="2" rx="1" fill="white"/>
<rect x="14" y="21" width="12" height="2" rx="1" fill="white"/>
<rect x="14" y="21" width="12" height="2" rx="1" fill="white"/>
<rect x="14" y="21" width="12" height="2" rx="1" fill="white"/>
<rect x="22" y="26" width="4" height="2" rx="1" fill="white"/>
<rect x="22" y="26" width="4" height="2" rx="1" fill="white"/>
<rect x="22" y="26" width="4" height="2" rx="1" fill="white"/>
</svg>
