<svg width="32" height="32" viewBox="0 0 32 32" fill="none" xmlns="http://www.w3.org/2000/svg">
<path d="M4 2.33325C4 1.78097 4.44772 1.33325 5 1.33325H27C27.5523 1.33325 28 1.78097 28 2.33325V28.7981C28 29.1324 27.8329 29.4447 27.5547 29.6301L24.5547 31.6301C24.2188 31.854 23.7812 31.854 23.4453 31.6301L20.5547 29.7031C20.2188 29.4791 19.7812 29.4791 19.4453 29.7031L16.5547 31.6301C16.2188 31.854 15.7812 31.854 15.4453 31.6301L12.5547 29.7031C12.2188 29.4791 11.7812 29.4791 11.4453 29.7031L8.5547 31.6301C8.2188 31.854 7.7812 31.854 7.4453 31.6301L4.4453 29.6301C4.1671 29.4447 4 29.1324 4 28.7981V2.33325Z" fill="#C4703E"/>
<rect x="12" y="4" width="8" height="2.66667" rx="1" fill="white"/>
<rect x="12" y="4" width="8" height="2.66667" rx="1" fill="white"/>
<rect x="12" y="4" width="8" height="2.66667" rx="1" fill="white"/>
<rect x="8" y="10.6667" width="16" height="2.66667" rx="1" fill="white"/>
<rect x="8" y="10.6667" width="16" height="2.66667" rx="1" fill="white"/>
<rect x="8" y="10.6667" width="16" height="2.66667" rx="1" fill="white"/>
<rect x="8" y="17.3333" width="16" height="2.66667" rx="1" fill="white"/>
<rect x="8" y="17.3333" width="16" height="2.66667" rx="1" fill="white"/>
<rect x="8" y="17.3333" width="16" height="2.66667" rx="1" fill="white"/>
<rect x="18.6667" y="24" width="5.33333" height="2.66667" rx="1" fill="white"/>
<rect x="18.6667" y="24" width="5.33333" height="2.66667" rx="1" fill="white"/>
<rect x="18.6667" y="24" width="5.33333" height="2.66667" rx="1" fill="white"/>
</svg>
