<svg width="24" height="24" viewBox="0 0 24 24" fill="none" xmlns="http://www.w3.org/2000/svg">
<path d="M3 2C3 1.44772 3.44772 1 4 1H20C20.5523 1 21 1.44772 21 2V21.4648C21 21.7992 20.8329 22.1114 20.5547 22.2969L18.5547 23.6302C18.2188 23.8541 17.7812 23.8541 17.4453 23.6302L15.5547 22.3698C15.2188 22.1459 14.7812 22.1459 14.4453 22.3698L12.5547 23.6302C12.2188 23.8541 11.7812 23.8541 11.4453 23.6302L9.5547 22.3698C9.2188 22.1459 8.7812 22.1459 8.4453 22.3698L6.5547 23.6302C6.2188 23.8541 5.7812 23.8541 5.4453 23.6302L3.4453 22.2969C3.1671 22.1114 3 21.7992 3 21.4648V2Z" fill="#386DF7"/>
<rect x="9" y="3" width="6" height="2" rx="1" fill="white"/>
<rect x="9" y="3" width="6" height="2" rx="1" fill="white"/>
<rect x="9" y="3" width="6" height="2" rx="1" fill="white"/>
<rect x="6" y="8" width="12" height="2" rx="1" fill="white"/>
<rect x="6" y="8" width="12" height="2" rx="1" fill="white"/>
<rect x="6" y="8" width="12" height="2" rx="1" fill="white"/>
<rect x="6" y="13" width="12" height="2" rx="1" fill="white"/>
<rect x="6" y="13" width="12" height="2" rx="1" fill="white"/>
<rect x="6" y="13" width="12" height="2" rx="1" fill="white"/>
<rect x="14" y="18" width="4" height="2" rx="1" fill="white"/>
<rect x="14" y="18" width="4" height="2" rx="1" fill="white"/>
<rect x="14" y="18" width="4" height="2" rx="1" fill="white"/>
</svg>
