<svg width="32" height="32" viewBox="0 0 32 32" fill="none" xmlns="http://www.w3.org/2000/svg">
<g clip-path="url(#clip0_5009_17364)">
<path d="M16 0C7.17 0 0 7.17 0 16C0 24.83 7.17 32 16 32C24.83 32 32 24.83 32 16C32 7.17 24.83 0 16 0ZM23.763 19.733C23.763 20.089 23.467 20.444 23.111 20.444C23.052 20.444 22.992 20.444 22.933 20.444L14.933 18.192C14.518 18.073 14.281 17.659 14.281 17.244L15.051 7.111C15.11 6.637 15.466 6.281 15.94 6.281H16.059C16.533 6.281 16.889 6.637 16.948 7.111L17.718 15.348L23.348 18.726C23.644 18.904 23.763 19.2 23.763 19.496V19.733V19.733Z" fill="#C4703E"/>
</g>
<defs>
<clipPath id="clip0_5009_17364">
<rect width="32" height="32" fill="white"/>
</clipPath>
</defs>
</svg>
