<svg width="24" height="24" viewBox="0 0 24 24" fill="none" xmlns="http://www.w3.org/2000/svg">
<path fill-rule="evenodd" clip-rule="evenodd" d="M2.29314 20.2114C1.90261 20.6019 1.90261 21.235 2.29314 21.6256C2.68366 22.0161 3.31683 22.0161 3.70735 21.6256L12.0577 13.2752L20.4082 21.6256C20.7987 22.0161 21.4318 22.0161 21.8224 21.6256C22.2129 21.2351 22.2129 20.6019 21.8224 20.2114L13.4719 11.861L21.6258 3.70711C22.0163 3.31658 22.0163 2.68342 21.6258 2.29289C21.2353 1.90237 20.6021 1.90237 20.2116 2.29289L12.0577 10.4468L3.9039 2.29293C3.51338 1.9024 2.88021 1.9024 2.48969 2.29293C2.09917 2.68345 2.09917 3.31662 2.48969 3.70714L10.6435 11.861L2.29314 20.2114Z" fill="#666666"/>
</svg>
