<svg width="24" height="24" viewBox="0 0 24 24" fill="none" xmlns="http://www.w3.org/2000/svg">
<g clip-path="url(#clip0_4744_40271)">
<path fill-rule="evenodd" clip-rule="evenodd" d="M6.34319 16.2427C5.95266 16.6332 5.95266 17.2663 6.34319 17.6569C6.73371 18.0474 7.36688 18.0474 7.7574 17.6569L12 13.4142L16.2427 17.6569C16.6332 18.0474 17.2664 18.0474 17.6569 17.6569C18.0474 17.2663 18.0474 16.6332 17.6569 16.2427L13.4143 12L17.6569 7.75737C18.0474 7.36684 18.0474 6.73368 17.6569 6.34316C17.2664 5.95263 16.6332 5.95263 16.2427 6.34316L12 10.5858L7.7574 6.34316C7.36688 5.95263 6.73371 5.95263 6.34319 6.34316C5.95266 6.73368 5.95266 7.36684 6.34319 7.75737L10.5858 12L6.34319 16.2427Z" fill="#666666"/>
</g>
<defs>
<clipPath id="clip0_4744_40271">
<rect width="24" height="24" fill="white"/>
</clipPath>
</defs>
</svg>
