<svg width="60" height="60" viewBox="0 0 60 60" fill="none" xmlns="http://www.w3.org/2000/svg">
<path d="M57.5006 6.87563C57.5006 3.07875 54.4238 0 50.625 0H21.8756C18.0787 0 15 3.07688 15 6.87563V40.6256C15 44.4225 18.0769 47.5013 21.8756 47.5013H50.625C54.4219 47.5013 57.5006 44.4244 57.5006 40.6256V6.87563V6.87563ZM45.6244 36.2494H26.8744C25.8394 36.2494 24.9994 35.4094 24.9994 34.3744C24.9994 33.3394 25.8394 32.4994 26.8744 32.4994H45.6244C46.6594 32.4994 47.4994 33.3394 47.4994 34.3744C47.4994 35.4094 46.6594 36.2494 45.6244 36.2494ZM45.6244 28.7494H26.8744C25.8394 28.7494 24.9994 27.9094 24.9994 26.8744C24.9994 25.8394 25.8394 24.9994 26.8744 24.9994H45.6244C46.6594 24.9994 47.4994 25.8394 47.4994 26.8744C47.4994 27.9094 46.6594 28.7494 45.6244 28.7494ZM45.6244 21.2494H26.8744C25.8394 21.2494 24.9994 20.4094 24.9994 19.3744C24.9994 18.3394 25.8394 17.4994 26.8744 17.4994H45.6244C46.6594 17.4994 47.4994 18.3394 47.4994 19.3744C47.4994 20.4094 46.6594 21.2494 45.6244 21.2494Z" fill="#C4703E"/>
<path d="M21.8756 51.2493C16.0163 51.2493 11.25 46.4811 11.25 40.6236V6.87364C11.25 6.65802 11.3006 6.45927 11.3119 6.24927H9.37502C5.58189 6.24927 2.49939 9.33177 2.49939 13.1249V53.1243C2.49939 56.9174 5.58189 59.9999 9.37502 59.9999H39.375C43.1681 59.9999 46.2506 56.9174 46.2506 53.1243V51.2493H21.8756V51.2493Z" fill="#C4703E"/>
</svg>
