<svg width="24" height="24" viewBox="0 0 24 24" fill="none" xmlns="http://www.w3.org/2000/svg">
<path fill-rule="evenodd" clip-rule="evenodd" d="M19.4998 1C20.8811 1 21.9999 2.12887 21.9999 3.52106V15.8961C21.9999 17.2889 20.8804 18.4171 19.4998 18.4171H9.04569C7.66435 18.4171 6.54552 17.2882 6.54552 15.8961V3.52106C6.54552 2.12819 7.66504 1 9.04569 1H19.4998ZM10.8634 14.2914H17.6814C18.0578 14.2914 18.3632 13.9834 18.3632 13.6039C18.3632 13.2244 18.0578 12.9164 17.6814 12.9164H10.8634C10.487 12.9164 10.1816 13.2244 10.1816 13.6039C10.1816 13.9834 10.487 14.2914 10.8634 14.2914ZM10.8634 11.5414H17.6814C18.0578 11.5414 18.3632 11.2334 18.3632 10.8539C18.3632 10.4744 18.0578 10.1664 17.6814 10.1664H10.8634C10.487 10.1664 10.1816 10.4744 10.1816 10.8539C10.1816 11.2334 10.487 11.5414 10.8634 11.5414ZM10.8634 8.79144H17.6814C18.0578 8.79144 18.3632 8.48344 18.3632 8.10394C18.3632 7.72444 18.0578 7.41644 17.6814 7.41644H10.8634C10.487 7.41644 10.1816 7.72444 10.1816 8.10394C10.1816 8.48344 10.487 8.79144 10.8634 8.79144ZM5.18197 15.8954C5.18197 18.0431 6.91512 19.7914 9.04575 19.7914H17.9092V20.4789C17.9092 21.8698 16.7883 23 15.409 23H4.50017C3.12088 23 2 21.8698 2 20.4789V5.8125C2 4.42169 3.12088 3.29144 4.50017 3.29144H5.20447C5.20269 3.32501 5.19819 3.35779 5.19367 3.39065C5.18783 3.43316 5.18197 3.47578 5.18197 3.52038V15.8954Z" fill="#386DF7"/>
</svg>
