<svg width="24" height="24" viewBox="0 0 24 24" fill="none" xmlns="http://www.w3.org/2000/svg">
<path d="M17.5238 14.334L13.485 18.3728C11.3233 20.546 8.41027 20.338 6.54916 18.4653C4.66492 16.5926 4.45685 13.7027 6.64164 11.5179L14.0384 4.12117C15.3099 2.8496 17.2057 2.62997 18.4426 3.86686C19.6795 5.11531 19.4483 6.99955 18.1767 8.25956L10.9997 15.4598C10.491 15.9799 9.88992 15.8297 9.52001 15.4829C9.18478 15.1245 9.04606 14.5234 9.55469 14.0032L14.0387 9.51926C14.4433 9.10311 14.4664 8.502 14.0733 8.10897C13.6803 7.73906 13.0792 7.75062 12.6746 8.15521L8.15596 12.6739C6.90751 13.9223 6.95375 15.8297 8.06348 16.9394C9.26569 18.1416 11.0806 18.1069 12.329 16.8585L19.5639 9.61204C21.8065 7.38102 21.7256 4.43329 19.7604 2.46813C17.8299 0.549219 14.836 0.410502 12.5934 2.65309L5.12731 10.1307C2.2027 13.0669 2.39922 17.2746 5.06951 19.9449C7.72825 22.5921 11.9475 22.8002 14.8722 19.8756L18.9688 15.7905C19.3618 15.3975 19.3618 14.6808 18.9572 14.3108C18.5758 13.8947 17.9284 13.9525 17.5238 14.334Z" fill="#386DF7"/>
</svg>
