<svg width="32" height="32" viewBox="0 0 32 32" fill="none" xmlns="http://www.w3.org/2000/svg">
<g clip-path="url(#clip0_5009_17360)">
<path d="M10.4618 5.73711V7.12437H21.7925V5.73711C21.7925 5.1001 21.3546 4.68959 20.6482 4.68959H11.5921C10.8998 4.68959 10.4618 5.1001 10.4618 5.73711ZM16.1131 15.6886C10.5607 15.6886 5.26272 14.8392 0.120117 12.6876V11.6542C0.120117 8.66734 1.6742 7.12437 4.68347 7.12437H7.52321V5.60971C7.52321 3.34479 8.9784 2 11.4084 2H20.8318C23.2618 2 24.717 3.34479 24.717 5.60971V7.12437H27.5568C30.5802 7.12437 32.1201 8.66734 32.1201 11.6542V12.6876C26.9775 14.8392 21.6795 15.6886 16.1131 15.6886ZM4.68347 30C1.6742 30 0.120117 28.4712 0.120117 25.4702V15.3771C4.41504 16.9484 8.28612 17.6845 12.1996 17.9818V19.1001C12.1996 20.1759 12.8212 20.7705 13.9091 20.7705H18.317C19.419 20.7705 20.0406 20.1759 20.0406 19.1001V17.9818C23.9541 17.6845 27.8252 16.9484 32.1201 15.3771V25.4702C32.1201 28.4712 30.5802 30 27.5568 30H4.68347Z" fill="#C4703E"/>
</g>
<defs>
<clipPath id="clip0_5009_17360">
<rect width="32" height="32" fill="white"/>
</clipPath>
</defs>
</svg>
