<svg width="24" height="24" viewBox="0 0 24 24" fill="none" xmlns="http://www.w3.org/2000/svg">
<path d="M12.0025 15.9502C13.2249 15.9502 14.2631 15.5223 15.1172 14.6666C15.9713 13.8109 16.3983 12.7718 16.3983 11.5494C16.3983 10.327 15.9705 9.28874 15.1148 8.43466C14.2591 7.58058 13.22 7.15354 11.9975 7.15354C10.7751 7.15354 9.73688 7.58138 8.8828 8.43709C8.02871 9.2928 7.60167 10.3319 7.60167 11.5543C7.60167 12.7767 8.02952 13.815 8.88522 14.6691C9.74094 15.5232 10.78 15.9502 12.0025 15.9502ZM12 14.4647C11.1909 14.4647 10.5031 14.1815 9.93672 13.6151C9.37033 13.0488 9.08713 12.361 9.08713 11.5519C9.08713 10.7427 9.37033 10.055 9.93672 9.48858C10.5031 8.92219 11.1909 8.63899 12 8.63899C12.8091 8.63899 13.4969 8.92219 14.0633 9.48858C14.6297 10.055 14.9129 10.7427 14.9129 11.5519C14.9129 12.361 14.6297 13.0488 14.0633 13.6151C13.4969 14.1815 12.8091 14.4647 12 14.4647ZM12 19.1037C9.72891 19.1037 7.65181 18.4979 5.76869 17.2863C3.88556 16.0747 2.38245 14.4806 1.25935 12.5041C1.16945 12.3492 1.10375 12.1931 1.06225 12.0358C1.02075 11.8784 1 11.7169 1 11.5513C1 11.3857 1.02075 11.2244 1.06225 11.0674C1.10375 10.9104 1.16945 10.7545 1.25935 10.5996C2.38245 8.62311 3.88556 7.02905 5.76869 5.81744C7.65181 4.60581 9.72891 4 12 4C14.2711 4 16.3482 4.60581 18.2313 5.81744C20.1144 7.02905 21.6176 8.62311 22.7406 10.5996C22.8306 10.7545 22.8963 10.9106 22.9378 11.0679C22.9793 11.2253 23 11.3868 23 11.5524C23 11.718 22.9793 11.8793 22.9378 12.0363C22.8963 12.1933 22.8306 12.3492 22.7406 12.5041C21.6176 14.4806 20.1144 16.0747 18.2313 17.2863C16.3482 18.4979 14.2711 19.1037 12 19.1037ZM12 17.4855C14.0318 17.4855 15.8973 16.9506 17.5965 15.8807C19.2957 14.8109 20.5948 13.3679 21.4938 11.5519C20.5948 9.73581 19.2957 8.29286 17.5965 7.22301C15.8973 6.15316 14.0318 5.61824 12 5.61824C9.96818 5.61824 8.10269 6.15316 6.40351 7.22301C4.70434 8.29286 3.40523 9.73581 2.5062 11.5519C3.40523 13.3679 4.70434 14.8109 6.40351 15.8807C8.10269 16.9506 9.96818 17.4855 12 17.4855Z" fill="#386DF7" stroke="#386DF7" stroke-width="0.6"/>
</svg>
