<svg width="24" height="24" viewBox="0 0 24 24" fill="none" xmlns="http://www.w3.org/2000/svg">
<path d="M20.5632 5.82676L15.1986 1.39137C14.8937 1.13978 14.503 1 14.1123 1H5.24108C3.17336 1 3.1543 1.13978 3.1543 3.1059V20.8941C3.1543 22.8602 3.17336 23 5.24108 23H19.0672C21.1349 23 21.154 22.8602 21.154 20.8941V7.07541C21.1635 6.60018 20.9444 6.14357 20.5632 5.82676ZM9.91013 17.5116H6.537C5.91763 17.5116 5.41259 17.0178 5.41259 16.4121C5.41259 15.8064 5.91763 15.3126 6.537 15.3126H9.91013C10.5295 15.3126 11.0345 15.8064 11.0345 16.4121C11.0345 17.0178 10.5295 17.5116 9.91013 17.5116ZM14.4077 13.1135H6.52746C5.9081 13.1135 5.40308 12.6197 5.40308 12.014C5.40308 11.4083 5.9081 10.9144 6.52746 10.9144H14.4077C15.027 10.9144 15.5321 11.4083 15.5321 12.014C15.5321 12.6197 15.027 13.1135 14.4077 13.1135Z" fill="#C4703E"/>
</svg>
