<svg width="24" height="24" viewBox="0 0 24 24" fill="none" xmlns="http://www.w3.org/2000/svg">
<rect x="1" y="6" width="4" height="2" fill="#386DF7"/>
<path fill-rule="evenodd" clip-rule="evenodd" d="M6 7C6 5.89543 6.89543 5 8 5C9.10457 5 10 5.89543 10 7C10 8.10457 9.10457 9 8 9C6.89543 9 6 8.10457 6 7ZM8 3C5.79086 3 4 4.79086 4 7C4 9.20914 5.79086 11 8 11C9.86384 11 11.4299 9.72523 11.874 8H23V6H11.874C11.4299 4.27477 9.86384 3 8 3ZM1 16H12.126C12.5701 14.2748 14.1362 13 16 13C17.8638 13 19.4299 14.2748 19.874 16H23V18H19.874C19.4299 19.7252 17.8638 21 16 21C14.1362 21 12.5701 19.7252 12.126 18H1V16ZM16 15C14.8954 15 14 15.8954 14 17C14 18.1046 14.8954 19 16 19C17.1046 19 18 18.1046 18 17C18 15.8954 17.1046 15 16 15Z" fill="#386DF7"/>
</svg>
