<svg width="24" height="24" viewBox="0 0 24 24" fill="none" xmlns="http://www.w3.org/2000/svg">
<path d="M4.3077 19.5C3.80257 19.5 3.375 19.325 3.025 18.975C2.675 18.625 2.5 18.1974 2.5 17.6923V6.30773C2.5 5.8026 2.675 5.37503 3.025 5.02503C3.375 4.67503 3.80257 4.50003 4.3077 4.50003H9.04998C9.29099 4.50003 9.52272 4.54683 9.74515 4.64043C9.96758 4.73401 10.1609 4.86286 10.325 5.02696L11.798 6.50003H19.6923C20.1974 6.50003 20.625 6.67503 20.975 7.02503C21.325 7.37503 21.5 7.8026 21.5 8.30773V17.6923C21.5 18.1974 21.325 18.625 20.975 18.975C20.625 19.325 20.1974 19.5 19.6923 19.5H4.3077Z" fill="#666666"/>
</svg>
