<svg width="24" height="24" viewBox="0 0 24 24" fill="none" xmlns="http://www.w3.org/2000/svg">
<path fill-rule="evenodd" clip-rule="evenodd" d="M21.5 5H11L8.97969 3.46613C8.67232 3.17031 8.25319 3 7.81542 3H2.64861C1.73582 3 1 3.70816 1 4.58664V19.4134C1 20.2918 1.73582 21 2.64861 21H21.3514C22.2642 21 23 20.2918 23 19.4134V6.5C22.9907 5.61255 22.4128 5 21.5 5Z" fill="#B70D18"/>
<rect x="8" y="14" width="2" height="8" rx="1" transform="rotate(-90 8 14)" fill="white"/>
<rect x="8" y="14" width="2" height="8" rx="1" transform="rotate(-90 8 14)" fill="white"/>
<rect x="8" y="14" width="2" height="8" rx="1" transform="rotate(-90 8 14)" fill="white"/>
<rect x="8" y="14" width="2" height="8" rx="1" transform="rotate(-90 8 14)" fill="white"/>
<rect x="8" y="14" width="2" height="8" rx="1" transform="rotate(-90 8 14)" fill="white"/>
<rect x="8" y="14" width="2" height="8" rx="1" transform="rotate(-90 8 14)" fill="white"/>
</svg>
