<svg width="24" height="24" viewBox="0 0 24 24" fill="none" xmlns="http://www.w3.org/2000/svg">
<path fill-rule="evenodd" clip-rule="evenodd" d="M11 5H21.5C22.4128 5 22.9907 5.61255 23 6.5V19.4134C23 20.2918 22.2642 21 21.3514 21H2.64861C1.73582 21 1 20.2918 1 19.4134V3.58664C1 2.70816 1.73582 2 2.64861 2H6.81542C7.25319 2 7.67232 2.17031 7.97969 2.46613L11 5ZM11 10C11 9.44771 11.4477 9 12 9C12.5523 9 13 9.44771 13 10V12H15C15.5523 12 16 12.4477 16 13C16 13.5523 15.5523 14 15 14H13V16C13 16.5523 12.5523 17 12 17C11.4477 17 11 16.5523 11 16V14H9C8.44771 14 8 13.5523 8 13C8 12.4477 8.44771 12 9 12H11V10Z" fill="#B70D18"/>
</svg>
