<svg width="24" height="24" viewBox="0 0 24 24" fill="none" xmlns="http://www.w3.org/2000/svg">
<path d="M20 6.00001H3.99998V17.6923C3.99998 17.782 4.02883 17.8558 4.08653 17.9135C4.14423 17.9712 4.21795 18 4.3077 18H12.5C12.7128 18 12.891 18.0718 13.0346 18.2154C13.1782 18.359 13.25 18.5372 13.25 18.75C13.25 18.9628 13.1782 19.141 13.0346 19.2846C12.891 19.4282 12.7128 19.5 12.5 19.5H4.3077C3.80257 19.5 3.375 19.325 3.025 18.975C2.675 18.625 2.5 18.1974 2.5 17.6923V6.30773C2.5 5.8026 2.675 5.37503 3.025 5.02503C3.375 4.67503 3.80257 4.50003 4.3077 4.50003H19.6923C20.1974 4.50003 20.625 4.67503 20.975 5.02503C21.325 5.37503 21.5 5.8026 21.5 6.30773V12.5C21.5 12.7128 21.4282 12.8911 21.2846 13.0347C21.141 13.1782 20.9628 13.25 20.75 13.25C20.5371 13.25 20.3589 13.1782 20.2154 13.0347C20.0718 12.8911 20 12.7128 20 12.5V6.00001ZM3.99998 6.00001V18V13.25V13.3731V6.00001ZM12 11L20 6.00001V7.44228L12.4769 12.1557C12.323 12.2493 12.1641 12.2961 12 12.2961C11.8359 12.2961 11.6769 12.2493 11.5231 12.1557L3.99998 7.51921V6.00001L12 11ZM19.5789 19.5H15.8077C15.5948 19.5 15.4166 19.4282 15.273 19.2846C15.1295 19.141 15.0577 18.9628 15.0577 18.75C15.0577 18.5372 15.1295 18.359 15.273 18.2154C15.4166 18.0718 15.5948 18 15.8077 18H19.5885L18.2654 16.6769C18.1167 16.5282 18.0433 16.3525 18.0452 16.15C18.0471 15.9474 18.1256 15.7718 18.2808 15.6231C18.4295 15.4846 18.6051 15.4144 18.8077 15.4125C19.0102 15.4106 19.1859 15.484 19.3346 15.6327L21.8192 18.1173C21.9128 18.2109 21.9814 18.3096 22.025 18.4135C22.0685 18.5173 22.0903 18.6295 22.0903 18.75C22.0903 18.8641 22.0685 18.9747 22.025 19.0817C21.9814 19.1888 21.9128 19.2891 21.8192 19.3827L19.325 21.8769C19.1865 22.0154 19.015 22.0855 18.8105 22.0875C18.6061 22.0894 18.4295 22.016 18.2808 21.8673C18.1423 21.7288 18.0731 21.5564 18.0731 21.35C18.0731 21.1436 18.1423 20.9711 18.2808 20.8327L19.5789 19.5Z" fill="#666666"/>
</svg>
