<svg width="64" height="51" viewBox="0 0 64 51" fill="none" xmlns="http://www.w3.org/2000/svg">
<path d="M36.4065 20.5926C33.4688 18.0056 29.5868 16.5569 25.3902 16.5569H15.5279C6.92462 16.5569 0 22.6623 0 30.3198C0 37.1495 5.66556 42.9444 13.2196 43.8757C13.5344 45.6349 13.4295 47.4975 12.9049 49.2567C12.7999 49.6706 12.9049 50.0845 13.3245 50.395C13.7442 50.7055 14.2688 50.7054 14.6885 50.4985C17.3114 49.3602 20.8787 47.1871 22.872 43.9792H25.495C34.0982 43.9792 41.0228 37.8738 41.0228 30.2163C40.9179 26.5945 39.2393 23.1796 36.4065 20.5926ZM20.459 38.2878C19.6197 38.2878 18.8853 37.5635 18.8853 36.7357C18.8853 35.9078 19.6197 35.1835 20.459 35.1835C21.2983 35.1835 22.0328 35.9078 22.0328 36.7357C22.0328 37.5635 21.2983 38.2878 20.459 38.2878ZM21.823 30.8373C21.823 30.8373 21.718 30.8373 21.718 30.9408V31.8721C21.718 32.286 21.4033 32.6999 20.9836 32.9069C20.5639 33.1139 20.0393 33.1139 19.5148 32.9069C19.0951 32.6999 18.7803 32.286 18.7803 31.8721V30.9408C18.7803 29.8025 19.6197 28.8711 20.8787 28.5607C21.718 28.3537 22.2427 27.6294 22.2427 26.905C22.1377 25.9737 21.2984 25.2493 20.1443 25.2493C19.4098 25.2493 18.6755 25.6633 18.3607 26.1806C18.1508 26.5946 17.7312 26.8015 17.2065 26.905C16.682 26.905 16.1574 26.698 15.9475 26.3876C15.6327 26.0772 15.6327 25.5598 15.8425 25.1458C16.6819 23.6971 18.3605 22.7658 20.249 22.7658C22.872 22.7658 25.0753 24.525 25.1802 26.8015C25.2851 28.5607 23.9211 30.2163 21.8228 30.8373H21.823Z" fill="#C4703E"/>
<path d="M64 13.7629C64 6.10532 57.1803 0 48.7869 0H39.1345C31.4755 0 25.0755 5.17401 24.1313 12.1072H24.6558C35.1476 12.1072 43.541 19.7648 43.541 29.285V29.9058C45.3246 31.665 47.4229 33.1138 49.7312 34.0451C50.1509 34.2521 50.6754 34.1486 51.0951 33.9416C51.4099 33.6312 51.6197 33.2172 51.5148 32.8033C50.9903 31.0441 50.7804 29.1815 51.0951 27.4223C58.4394 26.284 64 20.4891 64 13.7629Z" fill="#C4703E"/>
</svg>
