<svg width="32" height="32" viewBox="0 0 32 32" fill="none" xmlns="http://www.w3.org/2000/svg">
<path fill-rule="evenodd" clip-rule="evenodd" d="M28.5033 8H12.8833L9.52776 4.63554C9.12442 4.23221 8.57442 4 7.99998 4H3.49667C2.29889 4 1.33331 4.96554 1.33331 6.16332V25.8164C1.33331 27.0142 2.29889 27.9797 3.49667 27.9797H28.5033C29.7011 27.9797 30.6666 27.0142 30.6666 25.8164L30.6788 10.1756C30.6666 8.96555 29.7011 8 28.5033 8Z" fill="#C4703E"/>
<path d="M11.062 16.8387L15.0599 20.9342C15.5794 21.4663 16.4264 21.4663 16.9459 20.9342L20.9437 16.8387C21.4632 16.3065 21.4632 15.4389 20.9437 14.9067C20.4242 14.3745 19.5772 14.3745 19.0578 14.9067L17.3299 16.6767V8.03181C17.3299 8.03181 16.7341 8 16 8C15.2659 8 14.6646 8.03181 14.6646 8.03181V16.6767L12.9367 14.9067C12.4172 14.3745 11.5702 14.3745 11.0507 14.9067C10.5312 15.4389 10.5425 16.3065 11.062 16.8387Z" fill="white"/>
<path d="M14.6667 3.66675C14.6667 3.11446 15.1144 2.66675 15.6667 2.66675H16.3334C16.8856 2.66675 17.3334 3.11446 17.3334 3.66675V8.00008H14.6667V3.66675Z" fill="#C4703E"/>
</svg>
