<svg width="24" height="24" viewBox="0 0 24 24" fill="none" xmlns="http://www.w3.org/2000/svg">
<path fill-rule="evenodd" clip-rule="evenodd" d="M21.3775 6H9.66248L7.14583 3.47666C6.84333 3.17416 6.43083 3 6 3H2.62252C1.72418 3 1 3.72416 1 4.62249V19.3623C1 20.2606 1.72418 20.9848 2.62252 20.9848H21.3775C22.2758 20.9848 23 20.2606 23 19.3623L23.0091 7.63167C23 6.72417 22.2758 6 21.3775 6Z" fill="#B70D18"/>
<path d="M8.29648 12.629L11.2949 15.7006C11.6845 16.0998 12.3198 16.0998 12.7094 15.7006L15.7078 12.629C16.0974 12.2299 16.0974 11.5791 15.7078 11.18C15.3182 10.7809 14.6829 10.7809 14.2933 11.18L12.9974 12.5076V6.02386C12.9974 6.02386 12.5506 6 12 6C11.4494 6 10.9984 6.02386 10.9984 6.02386V12.5076L9.70251 11.18C9.31289 10.7809 8.67765 10.7809 8.28803 11.18C7.8984 11.5791 7.90685 12.2299 8.29648 12.629Z" fill="white"/>
<path d="M11 3C11 2.44772 11.4477 2 12 2C12.5523 2 13 2.44772 13 3V6H11V3Z" fill="#B70D18"/>
</svg>
