<svg preserveAspectRatio="none" width="100%" height="100%" overflow="visible" style="display: block;" viewBox="0 0 29.3333 29.3333" fill="none" xmlns="http://www.w3.org/2000/svg">
<path id="Vector" fill-rule="evenodd" clip-rule="evenodd" d="M14.6667 0C6.56957 0 0 6.56957 0 14.6667C0 22.7638 6.56957 29.3333 14.6667 29.3333C22.7638 29.3333 29.3333 22.7638 29.3333 14.6667C29.3333 6.56957 22.7638 0 14.6667 0ZM14.6667 23.4716C13.8594 23.4716 13.2013 22.8134 13.2013 22.0062C13.2013 21.199 13.8594 20.5408 14.6667 20.5408C15.4739 20.5408 16.1321 21.199 16.1321 22.0062C16.1321 22.8134 15.4739 23.4716 14.6667 23.4716ZM16.1321 17.3333C16.1321 18.1406 15.4739 18.7988 14.6667 18.7988C13.8594 18.7988 13.2013 18.1406 13.2013 17.3333V8.13209C13.2013 7.32487 13.8594 6.66667 14.6667 6.66667C15.4739 6.66667 16.1321 7.32487 16.1321 8.13209V17.3333Z" fill="var(--fill-0, #C4703E)"/>
</svg>
