<svg width="32" height="32" viewBox="0 0 32 32" fill="none" xmlns="http://www.w3.org/2000/svg">
<path fill-rule="evenodd" clip-rule="evenodd" d="M16 30.6667C24.0971 30.6667 30.6667 24.0972 30.6667 16.0001C30.6667 7.90299 24.0971 1.33341 16 1.33341C7.90289 1.33341 1.33332 7.90299 1.33332 16.0001C1.33332 24.0972 7.90289 30.6667 16 30.6667ZM16 7.19511C16.8072 7.19511 17.4654 7.85331 17.4654 8.66054C17.4654 9.46777 16.8072 10.126 16 10.126C15.1928 10.126 14.5346 9.46777 14.5346 8.66054C14.5346 7.85331 15.1928 7.19511 16 7.19511ZM14.5346 13.3334C14.5346 12.5262 15.1928 11.868 16 11.868C16.8072 11.868 17.4654 12.5262 17.4654 13.3334V22.5347C17.4654 23.3419 16.8072 24.0001 16 24.0001C15.1928 24.0001 14.5346 23.3419 14.5346 22.5347L14.5346 13.3334Z" fill="#C4703E"/>
</svg>
