<svg width="24" height="24" viewBox="0 0 24 24" fill="none" xmlns="http://www.w3.org/2000/svg">
<path fill-rule="evenodd" clip-rule="evenodd" d="M12 1C18.0728 1 23 5.92718 23 12C23 18.0728 18.0728 23 12 23C5.92718 23 1 18.0728 1 12C1 5.92718 5.92718 1 12 1ZM12 18.6037C12.6054 18.6037 13.0991 18.1101 13.0991 17.5047C13.0991 16.8992 12.6054 16.4056 12 16.4056C11.3946 16.4056 10.9009 16.8992 10.9009 17.5047C10.9009 18.1101 11.3946 18.6037 12 18.6037ZM10.9009 14C10.9009 14.6054 11.3946 15.0991 12 15.0991C12.6054 15.0991 13.0991 14.6054 13.0991 14L13.0991 7.09907C13.0991 6.49365 12.6054 6 12 6C11.3946 6 10.9009 6.49365 10.9009 7.09907L10.9009 14Z" fill="#B70D18"/>
</svg>
