<svg width="24" height="24" viewBox="0 0 24 24" fill="none" xmlns="http://www.w3.org/2000/svg">
<path d="M19.2769 21.4L12.3923 14.5154H11.8922C11.4358 15.4154 10.7717 16.1378 9.89995 16.6827C9.02815 17.2275 8.06148 17.5 6.99995 17.5C5.47432 17.5 4.17625 16.9647 3.10575 15.8942C2.03525 14.8237 1.5 13.5256 1.5 12C1.5 10.868 1.8141 9.85 2.4423 8.94615C3.07052 8.0423 3.88591 7.39743 4.88848 7.01155L2.59998 4.72305C2.45511 4.57818 2.38268 4.40512 2.38268 4.20385C2.38268 4.00257 2.45511 3.82437 2.59998 3.66925C2.75511 3.52053 2.93332 3.44457 3.1346 3.44135C3.33587 3.43815 3.51407 3.51412 3.6692 3.66925L20.3307 20.3462C20.4692 20.4846 20.5426 20.6561 20.5509 20.8606C20.5592 21.065 20.4858 21.2448 20.3307 21.4C20.1858 21.5448 20.0102 21.6173 19.8038 21.6173C19.5974 21.6173 19.4218 21.5448 19.2769 21.4ZM23.0172 12C23.0172 12.1205 22.998 12.2327 22.9595 12.3365C22.9211 12.4404 22.855 12.5391 22.7615 12.6327L20.1153 15.2692C20.0217 15.3628 19.9221 15.4314 19.8163 15.475C19.7105 15.5186 19.616 15.5404 19.5326 15.5404C19.3993 15.5404 19.2907 15.5279 19.2067 15.5029C19.1227 15.4779 19.0339 15.4352 18.9404 15.375L16.9231 13.4635L16.5577 13.7327L16.3654 13.5404L17.7019 12.5673L19.4154 13.85L21.2807 12L20.2807 11H13.825L12.325 9.50003H20.5173C20.6378 9.50003 20.7525 9.52183 20.8615 9.56543C20.9705 9.60901 21.0717 9.6776 21.1653 9.7712L22.7615 11.3673C22.855 11.4609 22.9211 11.5596 22.9595 11.6635C22.998 11.7673 23.0172 11.8795 23.0172 12ZM6.99995 16C7.84995 16 8.61854 15.758 9.30573 15.274C9.99291 14.7901 10.4769 14.1397 10.7577 13.3231H11.2L9.82883 11.9519L8.63075 10.7538L7.43268 9.55575L6.06153 8.1846C5.14229 8.36922 4.40222 8.82595 3.8413 9.5548C3.2804 10.2837 2.99995 11.0987 2.99995 12C2.99995 13.1 3.39162 14.0417 4.17495 14.825C4.95828 15.6083 5.89995 16 6.99995 16ZM6.99995 13.6154C6.55252 13.6154 6.17143 13.458 5.8567 13.1433C5.54197 12.8285 5.3846 12.4474 5.3846 12C5.3846 11.5526 5.54197 11.1715 5.8567 10.8568C6.17143 10.542 6.55252 10.3847 6.99995 10.3847C7.44738 10.3847 7.82847 10.542 8.1432 10.8568C8.45793 11.1715 8.6153 11.5526 8.6153 12C8.6153 12.4474 8.45793 12.8285 8.1432 13.1433C7.82847 13.458 7.44738 13.6154 6.99995 13.6154Z" fill="#666666"/>
</svg>
