<svg width="24" height="24" viewBox="0 0 24 24" fill="none" xmlns="http://www.w3.org/2000/svg">
<path d="M13.0542 4.02653V13.4939L17.2017 9.48173C17.3922 9.29623 17.6551 9.18122 17.9452 9.18122C18.2369 9.18122 18.5009 9.29673 18.6909 9.48373L18.6939 9.48673C18.8829 9.67224 19 9.92775 19 10.2098C19 10.4933 18.8819 10.7503 18.6909 10.9363L12.7451 16.6995C12.5541 16.885 12.2906 17 11.9995 17C11.7083 17 11.4449 16.885 11.2539 16.6995L5.30811 10.9363C5.11811 10.7513 5 10.4953 5 10.2128C5 9.64724 5.47038 9.18923 6.05116 9.18923C6.34129 9.18923 6.60421 9.30373 6.79421 9.48923L10.9447 13.4939V4.02653C10.9447 3.45951 11.4167 3 11.999 3C12.5813 3 13.0532 3.45951 13.0532 4.02653H13.0542Z" fill="#386DF7"/>
<path d="M3 16V19C3 19.5523 3.44772 20 4 20H20C20.5523 20 21 19.5523 21 19V16" stroke="#386DF7" stroke-width="2" stroke-linecap="round"/>
</svg>
