<svg width="24" height="24" viewBox="0 0 24 24" fill="none" xmlns="http://www.w3.org/2000/svg">
<path d="M4 11C4 10.4477 4.44772 10 5 10H19C19.5523 10 20 10.4477 20 11V18C20 20.7614 17.7614 23 15 23H9C6.23858 23 4 20.7614 4 18V11Z" fill="#386DF7"/>
<path d="M8 17C8.55228 17 9 16.5523 9 16C9 15.4477 8.55228 15 8 15C7.44772 15 7 15.4477 7 16C7 16.5523 7.44772 17 8 17Z" fill="white"/>
<path d="M12 17C12.5523 17 13 16.5523 13 16C13 15.4477 12.5523 15 12 15C11.4477 15 11 15.4477 11 16C11 16.5523 11.4477 17 12 17Z" fill="white"/>
<path d="M16 17C16.5523 17 17 16.5523 17 16C17 15.4477 16.5523 15 16 15C15.4477 15 15 15.4477 15 16C15 16.5523 15.4477 17 16 17Z" fill="white"/>
<path d="M12 2C14.2091 2 16 3.79086 16 6V11H8V6C8 3.79086 9.79086 2 12 2Z" stroke="#386DF7" stroke-width="2"/>
</svg>
