<svg width="32" height="32" viewBox="0 0 32 32" fill="none" xmlns="http://www.w3.org/2000/svg">
<path d="M5.33331 14.3333C5.33331 13.781 5.78103 13.3333 6.33331 13.3333H25.6666C26.2189 13.3333 26.6666 13.781 26.6666 14.3333V25.6666C26.6666 28.428 24.4281 30.6666 21.6666 30.6666H10.3333C7.57189 30.6666 5.33331 28.428 5.33331 25.6666V14.3333Z" fill="#C4703E"/>
<path d="M10.6666 22.6667C11.403 22.6667 12 22.0697 12 21.3333C12 20.597 11.403 20 10.6666 20C9.93027 20 9.33331 20.597 9.33331 21.3333C9.33331 22.0697 9.93027 22.6667 10.6666 22.6667Z" fill="white"/>
<path d="M16 22.6667C16.7364 22.6667 17.3334 22.0697 17.3334 21.3333C17.3334 20.597 16.7364 20 16 20C15.2636 20 14.6667 20.597 14.6667 21.3333C14.6667 22.0697 15.2636 22.6667 16 22.6667Z" fill="white"/>
<path d="M21.3333 22.6667C22.0697 22.6667 22.6667 22.0697 22.6667 21.3333C22.6667 20.597 22.0697 20 21.3333 20C20.597 20 20 20.597 20 21.3333C20 22.0697 20.597 22.6667 21.3333 22.6667Z" fill="white"/>
<path d="M15.3333 2.33325H16.6663C19.4277 2.33325 21.6663 4.57183 21.6663 7.33325V15.0002H10.3333V7.33325C10.3333 4.57183 12.5719 2.33325 15.3333 2.33325Z" stroke="#C4703E" stroke-width="2"/>
</svg>
