<svg width="24" height="24" viewBox="0 0 24 24" fill="none" xmlns="http://www.w3.org/2000/svg">
<path d="M20.4089 5.82676L15.0443 1.39137C14.7394 1.13978 14.3487 1 13.958 1H5.08679C3.01906 1 3 1.13978 3 3.1059V20.8941C3 22.8602 3.01906 23 5.08679 23H18.9129C20.9806 23 20.9997 22.8602 20.9997 20.8941V7.07541C21.0092 6.60018 20.7901 6.14357 20.4089 5.82676Z" fill="#B70D18"/>
<path fill-rule="evenodd" clip-rule="evenodd" d="M9.70711 9.29289C9.31658 8.90237 8.68342 8.90237 8.29289 9.29289C7.90237 9.68342 7.90237 10.3166 8.29289 10.7071L10.7821 13.1963L8.29293 15.6856C7.9024 16.0761 7.9024 16.7092 8.29293 17.0998C8.68345 17.4903 9.31662 17.4903 9.70714 17.0998L12.1963 14.6106L14.6856 17.0998C15.0761 17.4903 15.7092 17.4903 16.0998 17.0998C16.4903 16.7092 16.4903 16.0761 16.0998 15.6856L13.6106 13.1963L16.0998 10.7071C16.4903 10.3166 16.4903 9.68342 16.0998 9.29289C15.7093 8.90237 15.0761 8.90237 14.6856 9.29289L12.1963 11.7821L9.70711 9.29289Z" fill="white"/>
</svg>
