<svg width="60" height="60" viewBox="0 0 60 60" fill="none" xmlns="http://www.w3.org/2000/svg">
<g clip-path="url(#clip0_1407_29137)">
<path d="M32.7956 31.1474C32.5969 30.8474 32.1975 30.5493 31.7981 30.448C31.3988 30.2493 30.9 30.2493 30.3 30.2493H28.6031C28.7025 30.2493 28.7025 36.9374 28.7025 36.9374H30.7988C31.0988 36.9374 31.4981 36.838 31.7963 36.7387C32.0944 36.6393 32.3944 36.4387 32.6944 36.2399C32.9944 35.9399 33.1931 35.6418 33.2925 35.2424C33.3919 34.843 33.4913 34.3443 33.4913 33.7443C33.4913 33.2455 33.3919 32.7468 33.2925 32.2462C33.1931 31.8468 32.9925 31.4474 32.7938 31.1474H32.7956ZM20.2163 30.3487C20.0175 30.2493 19.8169 30.1499 19.5169 30.1499C19.2169 30.1499 19.0181 30.0505 18.7181 30.0505H16.9219V33.2455H18.7181C19.0181 33.2455 19.2169 33.2455 19.5169 33.1462C19.8169 33.0468 20.0156 33.0468 20.2163 32.9474C20.4169 32.848 20.5163 32.6474 20.715 32.4487C20.8144 32.2499 20.9138 31.9499 20.9138 31.6499C20.9138 31.3499 20.8144 31.0518 20.715 30.8512C20.6156 30.6524 20.415 30.4518 20.2163 30.3524V30.3487ZM52.3631 13.1774L38.0869 1.0968C37.2881 0.397422 36.2906 -0.00195312 35.1919 -0.00195312H11.6306C6.14063 -0.00195312 6.03938 0.397422 6.03938 5.78805V54.208C6.03938 59.4993 6.13875 59.8987 11.6306 59.998H48.3694C53.8594 59.998 53.9606 59.5987 53.9606 54.208V16.5712C53.9606 15.2737 53.3625 14.0755 52.3631 13.1774V13.1774ZM22.7119 32.9455C22.6125 33.3449 22.3125 33.7443 22.1138 34.0443C21.8138 34.3443 21.4144 34.6424 21.015 34.843C20.5163 35.0418 20.0175 35.143 19.3181 35.143H16.8225V38.9362H14.5256V28.2543H19.3181C20.0175 28.2543 20.5163 28.3537 21.015 28.5543C21.4144 28.753 21.8138 28.9537 22.1138 29.353C22.4138 29.653 22.6125 30.0524 22.7119 30.4518C23.0119 31.2505 23.0119 32.1487 22.7119 32.9474V32.9455ZM35.49 35.6399C35.2913 36.3393 34.9913 36.838 34.5919 37.3368C34.1925 37.8355 33.6938 38.2349 33.0938 38.4355C32.4956 38.8349 31.7963 38.9343 30.9975 38.9343H26.4056V28.2524H30.9975C31.6969 28.2524 32.295 28.3518 32.895 28.5524C33.495 28.753 33.9938 29.0512 34.3931 29.5499C34.7925 29.9493 35.1919 30.5474 35.3906 31.1474C35.5894 31.8468 35.79 32.5443 35.79 33.4443C35.79 34.243 35.6906 34.9424 35.49 35.6399V35.6399ZM46.7719 30.2493H41.58V32.7449H46.0725V34.5412H41.58V38.9343H39.1838V28.2524H46.7719V30.2493V30.2493Z" fill="#C4703E"/>
<path d="M39.1838 28.2524V38.9343H41.58V34.5412H46.0725V32.7449H41.58V30.2493H46.7719V28.2524H39.1838V28.2524ZM22.1137 29.3512C21.8137 28.9518 21.4144 28.7531 21.015 28.5524C20.5163 28.3537 20.0175 28.2524 19.3181 28.2524H14.5256V38.9343H16.8225V35.1412H19.3181C20.0175 35.1412 20.5163 35.0418 21.015 34.8412C21.4144 34.6424 21.8137 34.3424 22.1137 34.0424C22.3125 33.7424 22.6125 33.3431 22.7119 32.9437C23.0119 32.1449 23.0119 31.2468 22.7119 30.4481C22.6125 30.0487 22.4119 29.6493 22.1137 29.3493V29.3512ZM20.715 32.4468C20.5163 32.6456 20.415 32.8462 20.2162 32.9456C20.0175 33.0449 19.8169 33.0449 19.5169 33.1443C19.2169 33.2437 19.0181 33.2437 18.7181 33.2437H16.9219V30.0487H18.7181C19.0181 30.0487 19.2169 30.1481 19.5169 30.1481C19.8169 30.1481 20.0156 30.2474 20.2162 30.3468C20.4169 30.4462 20.6156 30.6468 20.715 30.8456C20.8144 31.0443 20.9138 31.3443 20.9138 31.6443C20.9138 31.9443 20.8144 32.2424 20.715 32.4431V32.4468ZM34.3931 29.5499C33.9938 29.0512 33.495 28.7512 32.895 28.5524C32.295 28.3537 31.6969 28.2524 30.9975 28.2524H26.4056V38.9343H30.9975C31.7962 38.9343 32.4956 38.8349 33.0938 38.4356C33.6919 38.2368 34.1925 37.8374 34.5919 37.3368C34.9912 36.8362 35.2912 36.3393 35.49 35.6399C35.6887 34.9406 35.79 34.2431 35.79 33.4443C35.79 32.5462 35.5913 31.8468 35.3906 31.1474C35.1919 30.5493 34.7925 29.9493 34.3931 29.5499V29.5499ZM33.2944 35.2406C33.195 35.6399 32.9944 35.9399 32.6963 36.2381C32.3963 36.4368 32.0981 36.6374 31.7981 36.7368C31.4981 36.8362 31.0988 36.9356 30.8006 36.9356H28.7044C28.7044 36.9356 28.7044 30.2474 28.605 30.2474H30.3019C30.9 30.2474 31.4006 30.2474 31.8 30.4462C32.1994 30.5456 32.5988 30.8456 32.7975 31.1456C32.9963 31.4456 33.1969 31.8449 33.2962 32.2443C33.3956 32.7431 33.495 33.2418 33.495 33.7424C33.495 34.3406 33.3956 34.8412 33.2962 35.2406H33.2944Z" fill="white"/>
</g>
<defs>
<clipPath id="clip0_1407_29137">
<rect width="60" height="60" fill="white"/>
</clipPath>
</defs>
</svg>
