<svg width="24" height="24" viewBox="0 0 24 24" fill="none" xmlns="http://www.w3.org/2000/svg">
<path d="M3 11.625C3 11.2108 3.33579 10.875 3.75 10.875H20.25C20.6642 10.875 21 11.2108 21 11.625V12.375C21 12.7892 20.6642 13.125 20.25 13.125H3.75C3.33579 13.125 3 12.7892 3 12.375V11.625Z" fill="#666666"/>
<path d="M12.375 3C12.7892 3 13.125 3.33579 13.125 3.75V20.25C13.125 20.6642 12.7892 21 12.375 21H11.625C11.2108 21 10.875 20.6642 10.875 20.25V3.75C10.875 3.33579 11.2108 3 11.625 3H12.375Z" fill="#666666"/>
</svg>
