<svg width="24" height="24" viewBox="0 0 24 24" fill="none" xmlns="http://www.w3.org/2000/svg">
<path fill-rule="evenodd" clip-rule="evenodd" d="M16.7199 18.025V22.745C16.7199 23.395 16.1899 23.925 15.5399 23.925H8.44986C7.79986 23.925 7.26987 23.395 7.26987 22.745V18.025H3.72989C2.42989 18.025 1.36987 16.965 1.36987 15.665V7.39499C1.36987 6.09499 2.42989 5.03497 3.72989 5.03497H20.2699C21.5699 5.03497 22.6299 6.09499 22.6299 7.39499V15.665C22.6299 16.965 21.5699 18.025 20.2699 18.025H16.7199ZM18.4999 10.945C19.4799 10.945 20.2699 10.155 20.2699 9.17499C20.2699 8.19499 19.4799 7.40497 18.4999 7.40497C17.5199 7.40497 16.7299 8.19499 16.7299 9.17499C16.7299 10.155 17.5199 10.945 18.4999 10.945ZM9.63986 14.485V21.575H14.3599V14.485H9.63986Z" fill="#B70D18"/>
<path fill-rule="evenodd" clip-rule="evenodd" d="M8.52008 0.0750122H15.6101C16.2601 0.0750122 16.7901 0.605035 16.7901 1.25504C16.7901 1.90504 16.2601 2.43503 15.6101 2.43503H8.52008C7.87008 2.43503 7.34009 1.90504 7.34009 1.25504C7.34009 0.605035 7.86008 0.0750122 8.52008 0.0750122Z" fill="#B70D18"/>
</svg>
