<svg width="24" height="24" viewBox="0 0 24 24" fill="none" xmlns="http://www.w3.org/2000/svg">
<path fill-rule="evenodd" clip-rule="evenodd" d="M12.9344 0.0382044C12.6482 -0.0127348 12.3518 -0.0127348 12.0554 0.0382044L3 1.72939V12.7119C3 16.1859 4.79884 19.4155 7.75257 21.2493L11.8714 23.8166C12.2598 24.0611 12.7402 24.0611 13.1286 23.8166L17.2474 21.2493C20.2012 19.4053 22 16.1859 22 12.7119V1.72939L12.9344 0.0382044ZM16.8693 9.57401L12.3211 14.1076C12.0963 14.3317 11.8101 14.4438 11.524 14.4438C11.2378 14.4438 10.9516 14.3317 10.7267 14.1076L8.44756 11.8357C7.98764 11.3773 7.98764 10.7049 8.44756 10.2464C8.90749 9.78796 9.64336 9.78796 10.042 10.2464L11.524 11.7237L15.2749 7.98471C15.7348 7.52625 16.4093 7.52625 16.8693 7.98471C17.3292 8.44316 17.319 9.11555 16.8693 9.57401Z" fill="#B70D18"/>
</svg>
