<svg width="24" height="24" viewBox="0 0 24 24" fill="none" xmlns="http://www.w3.org/2000/svg">
<path d="M22.9077 20.5553L17.1643 14.7919C18.1901 13.3507 18.8054 11.6011 18.8054 9.74867C18.8054 4.91107 14.908 1 10.0873 1C5.26655 1 1.36914 4.91107 1.36914 9.74867C1.36914 14.5863 5.26655 18.4973 10.0873 18.4973C11.9332 18.4973 13.6767 17.8799 15.1128 16.8505L20.8562 22.614C21.369 23.1287 22.2924 23.1287 22.9077 22.614C23.523 21.9965 23.523 21.1728 22.9077 20.5553ZM10.0873 16.4387C6.39473 16.4387 3.42062 13.4541 3.42062 9.74867C3.42062 6.0432 6.39473 3.05867 10.0873 3.05867C13.7798 3.05867 16.7539 6.0432 16.7539 9.74867C16.7539 13.4541 13.7798 16.4387 10.0873 16.4387Z" fill="#386DF7"/>
</svg>
