<svg width="32" height="32" viewBox="0 0 32 32" fill="none" xmlns="http://www.w3.org/2000/svg">
<g clip-path="url(#clip0_5009_17368)">
<path d="M31.329 28.4009L22.975 20.0469C24.467 17.9579 25.362 15.4219 25.362 12.7369C25.362 5.72491 19.693 0.0559082 12.681 0.0559082C5.669 0.0559082 0 5.72491 0 12.7369C0 19.7489 5.669 25.4179 12.681 25.4179C15.366 25.4179 17.902 24.5229 19.991 23.0309L28.345 31.3849C29.091 32.1309 30.434 32.1309 31.329 31.3849C32.224 30.4899 32.224 29.2959 31.329 28.4009V28.4009ZM12.681 22.4339C7.31 22.4339 2.984 18.1079 2.984 12.7369C2.984 7.36591 7.31 3.03991 12.681 3.03991C18.052 3.03991 22.378 7.36591 22.378 12.7369C22.378 18.1079 18.052 22.4339 12.681 22.4339V22.4339Z" fill="#C4703E"/>
</g>
<defs>
<clipPath id="clip0_5009_17368">
<rect width="32" height="32" fill="white"/>
</clipPath>
</defs>
</svg>
