<svg preserveAspectRatio="none" width="100%" height="100%" overflow="visible" style="display: block;" viewBox="0 0 16.9842 20.2577" fill="none" xmlns="http://www.w3.org/2000/svg">
<path id="Vector" d="M3.96683 10.9377C4.15939 14.4423 5.96949 16.676 8.66539 16.676C10.6681 16.676 12.1316 15.6362 12.9018 13.7491H16.8686C15.8673 17.8315 12.8633 20.2578 8.66539 20.2578C3.46616 20.2578 0 16.2909 0 10.1289C0 3.92832 3.42765 0 8.62687 0C13.7491 0 16.9842 3.73575 16.9842 9.8208C16.9842 10.1674 16.9842 10.5525 16.9457 10.9377H3.96683ZM8.62687 3.42766C6.23908 3.42766 4.54451 5.08366 4.08236 7.81813H13.0944C12.7092 5.04518 11.0917 3.42766 8.62687 3.42766Z" fill="var(--fill-0, white)"/>
</svg>
