<svg width="24" height="24" viewBox="0 0 24 24" fill="none" xmlns="http://www.w3.org/2000/svg">
<path d="M20.4089 5.82676L15.0443 1.39137C14.7394 1.13978 14.3487 1 13.958 1H5.08679C3.01906 1 3 1.13978 3 3.1059V20.8941C3 22.8602 3.01906 23 5.08679 23H18.9129C20.9806 23 20.9997 22.8602 20.9997 20.8941V7.07541C21.0092 6.60018 20.7901 6.14357 20.4089 5.82676Z" fill="#B70D18"/>
<path d="M12.3414 9.34142L15.8586 12.8586C15.9367 12.9367 15.9367 13.0633 15.8586 13.1414L12.3414 16.6586C12.2154 16.7846 12 16.6953 12 16.5172V14H9.4C9.17909 14 9 13.8209 9 13.6V12.4C9 12.1791 9.17909 12 9.4 12H12V9.48284C12 9.30466 12.2154 9.21543 12.3414 9.34142Z" fill="white"/>
</svg>
