<svg width="24" height="24" viewBox="0 0 24 24" fill="none" xmlns="http://www.w3.org/2000/svg">
<path fill-rule="evenodd" clip-rule="evenodd" d="M4.22118 9H19.7788C21.0024 9 22 10.0283 22 11.2895V20.7105C22 21.9717 21.0024 23 19.7788 23H4.22118C2.99765 23 2 21.9717 2 20.7105V11.2895C2 10.0283 2.98824 9 4.22118 9Z" fill="#B70D18"/>
<path d="M5 12L12 17L19 12" stroke="white" stroke-width="2" stroke-linecap="round"/>
<path d="M8.68284 4.31716L11.8586 1.14142C11.9367 1.06332 12.0633 1.06332 12.1414 1.14142L15.3172 4.31716C15.5691 4.56914 15.3907 5 15.0343 5H13V7.6C13 7.82091 12.8209 8 12.6 8H11.4C11.1791 8 11 7.82091 11 7.6V5H8.96569C8.60932 5 8.43086 4.56914 8.68284 4.31716Z" fill="#386DF7"/>
</svg>
