<svg width="24" height="24" viewBox="0 0 24 24" fill="none" xmlns="http://www.w3.org/2000/svg">
<path d="M20.5364 14.7738H20.6192C22.1389 14.7738 23.3691 13.5424 23.3691 12.0212C23.3691 10.5 22.1389 9.26859 20.6192 9.26859H20.4641C20.247 9.26859 20.0505 9.14443 19.9471 8.95816L19.9161 8.82363C19.8128 8.59598 19.8644 8.33726 20.0402 8.16134L20.0919 8.10961C20.6088 7.59221 20.8983 6.89888 20.8983 6.16417C20.8983 5.42946 20.6088 4.73613 20.0919 4.21873C19.575 3.70132 18.8823 3.41158 18.1483 3.41158C17.4142 3.41158 16.7216 3.70132 16.2047 4.21873L16.153 4.27049C15.9876 4.43605 15.7291 4.47743 15.5017 4.3843C15.2742 4.29117 15.1295 4.07386 15.1295 3.83585V3.75308C15.1295 2.23191 13.8992 1.00049 12.3795 1.00049C10.8598 1.00049 9.62948 2.23191 9.62948 3.75308V3.9083C9.62948 4.12561 9.50542 4.32222 9.31933 4.4257L9.18493 4.45674C8.95748 4.54988 8.69903 4.50849 8.52327 4.33257L8.4716 4.28081C7.95468 3.76341 7.262 3.47366 6.52798 3.47366C5.79396 3.47366 5.10128 3.76341 4.58437 4.28081C4.06745 4.79822 3.77798 5.49154 3.77798 6.22626C3.77798 6.96097 4.06745 7.6543 4.58437 8.1717L4.63606 8.22343C4.80148 8.389 4.84283 8.6477 4.74978 8.87536C4.6464 9.15476 4.42929 9.30997 4.11914 9.32032C2.59941 9.32032 1.36914 10.5517 1.36914 12.0729C1.36914 13.5941 2.59941 14.8255 4.11914 14.8255H4.27421C4.512 14.8255 4.71877 14.9704 4.81181 15.1877C4.9152 15.4154 4.8635 15.6844 4.69809 15.85L4.64639 15.9017C4.12948 16.4191 3.84 17.1124 3.84 17.8472C3.84 18.5819 4.12948 19.2752 4.64639 19.7926C5.16331 20.31 5.85599 20.5998 6.59001 20.5998C7.32403 20.5998 8.01671 20.31 8.53362 19.7926L8.5853 19.7408C8.75072 19.5753 9.00918 19.5339 9.23662 19.627C9.51576 19.7305 9.67084 19.9478 9.68118 20.2583C9.68118 21.7794 10.9114 23.0108 12.4312 23.0108C13.9509 23.0108 15.1812 21.7794 15.1812 20.2583V20.103C15.1812 19.865 15.3259 19.6581 15.543 19.5649C15.7705 19.4615 16.0393 19.5132 16.2047 19.6788L16.2564 19.7305C16.7733 20.2479 17.4659 20.5376 18.2 20.5376C18.934 20.5376 19.6267 20.2479 20.1436 19.7305C20.6605 19.2131 20.95 18.5198 20.95 17.7851C20.95 17.0504 20.6605 16.357 20.1436 15.8396L20.0919 15.7879C19.9265 15.6223 19.8851 15.3636 19.9885 15.1256C20.0816 14.9186 20.2987 14.7738 20.5364 14.7738ZM12.3691 15.6947C10.3428 15.6947 8.70937 14.0494 8.70937 12.0315C8.70937 10.0033 10.3532 8.36832 12.3691 8.36832C14.3851 8.36832 16.0289 10.0137 16.0289 12.0315C16.0289 14.0494 14.3955 15.6947 12.3691 15.6947Z" fill="#B70D18"/>
</svg>
