<svg width="24" height="24" viewBox="0 0 24 24" fill="none" xmlns="http://www.w3.org/2000/svg">
<path fill-rule="evenodd" clip-rule="evenodd" d="M5.89239 1H18.1076C20.8115 1 23 3.18845 23 5.89242C23 8.59639 20.8115 10.7848 18.1076 10.7848H5.89239C3.18842 10.7848 1 8.59639 1 5.89242C1 3.18845 3.19894 1 5.89239 1ZM5.89239 8.32283C7.23911 8.32283 8.3333 7.22861 8.3333 5.88189C8.3333 4.53517 7.23911 3.44094 5.89239 3.44094C4.54566 3.44094 3.45144 4.53517 3.45144 5.88189C3.45144 7.22861 4.54566 8.32283 5.89239 8.32283Z" fill="#B70D18"/>
<path fill-rule="evenodd" clip-rule="evenodd" d="M5.89239 13.2152H18.1076C20.8115 13.2152 23 15.4036 23 18.1076C23 20.8116 20.8115 23 18.1076 23H5.89239C3.18842 23 1 20.8116 1 18.1076C1.01052 15.4036 3.19894 13.2152 5.89239 13.2152ZM18.1181 20.5485C19.4648 20.5485 20.5591 19.4543 20.5591 18.1076C20.5591 16.7609 19.4648 15.6667 18.1181 15.6667C16.7714 15.6667 15.6772 16.7609 15.6772 18.1076C15.6666 19.4543 16.7609 20.5485 18.1181 20.5485Z" fill="#B70D18"/>
</svg>
