<svg width="40" height="40" viewBox="0 0 40 40" fill="none" xmlns="http://www.w3.org/2000/svg">
<circle cx="20" cy="20" r="20" fill="#AACEFF"/>
<path d="M28.4089 13.8268L23.0443 9.39137C22.7394 9.13978 22.3487 9 21.958 9H13.0868C11.0191 9 11 9.13978 11 11.1059V28.8941C11 30.8602 11.0191 31 13.0868 31H26.9129C28.9806 31 28.9997 30.8602 28.9997 28.8941V15.0754C29.0092 14.6002 28.7901 14.1436 28.4089 13.8268Z" fill="#386DF7"/>
<path d="M20 17C15.6369 17 14 21 14 21C14 21 15.6369 25 20 25C23.2738 25 26 21 26 21C26 21 23.2738 17 20 17ZM20 22.9972C18.8937 22.9972 18.0019 22.1001 18.0019 21C18.0019 19.8942 18.8993 19.0028 20 19.0028C21.1007 19.0028 21.9981 19.8999 21.9981 21C21.9981 22.1058 21.1063 22.9972 20 22.9972Z" fill="white"/>
</svg>
