<svg width="40" height="40" viewBox="0 0 40 40" fill="none" xmlns="http://www.w3.org/2000/svg">
<circle cx="20" cy="20" r="20" fill="#AACEFF"/>
<path fill-rule="evenodd" clip-rule="evenodd" d="M20 9L11 11V20.6526C11 23.8371 12.7042 26.7975 15.5024 28.4785L19.4045 30.8319C19.7724 31.056 20.2276 31.056 20.5955 30.8319L24.4976 28.4785C27.2958 26.7882 29 23.8371 29 20.6526V11L20 9Z" fill="#386DF7"/>
<path d="M20 15C15.6369 15 14 19 14 19C14 19 15.6369 23 20 23C23.2738 23 26 19 26 19C26 19 23.2738 15 20 15ZM20 20.9972C18.8937 20.9972 18.0019 20.1001 18.0019 19C18.0019 17.8942 18.8993 17.0028 20 17.0028C21.1007 17.0028 21.9981 17.8999 21.9981 19C21.9981 20.1058 21.1063 20.9972 20 20.9972Z" fill="white"/>
</svg>
