<svg width="24" height="24" viewBox="0 0 24 24" fill="none" xmlns="http://www.w3.org/2000/svg">
<path d="M13.9931 6C13.9931 6.5525 14.4412 7 14.9931 7C15.545 7 15.9931 6.55188 15.9931 6V5V4.99875C15.9931 2.79 14.2025 1 11.9943 1H4.99685C2.78934 1.00125 0.999969 2.79125 0.999969 4.99875V5V19V19.0012C0.999969 21.2094 2.78997 22.9994 4.99747 23H12.0025C14.2106 22.9994 16 21.2094 16 19.0012V18.9987V17.9994C16.0006 17.985 16.0012 17.9688 16.0012 17.9519C16.0012 17.3994 15.5531 16.9519 15.0012 16.9519C14.4493 16.9519 14.0012 17.4 14.0012 17.9519C14.0012 17.9688 14.0018 17.985 14.0025 18.0013V17.9987V18.9987C14.0025 20.1031 13.1075 20.9994 12.0018 20.9994H4.99997C3.89497 20.9994 2.99934 20.1037 2.99934 18.9987V4.99875C2.99934 3.89437 3.89559 2.99813 4.99997 2.99813H11.9937C13.0975 2.99938 13.9918 3.89437 13.9918 4.99875V5V6H13.9931Z" fill="#386DF7"/>
<path d="M10.0265 10.9458H19.4939L17.4817 8.79832C17.2962 8.60781 17.1812 8.34489 17.1812 8.05475C17.1812 7.76308 17.2967 7.49913 17.4837 7.30913L17.4867 7.30605C17.6722 7.11708 17.9277 7 18.2098 7C18.4933 7 18.7503 7.11811 18.9363 7.30913L22.6995 11.2549C22.885 11.4459 23 11.7094 23 12.0005C23 12.2917 22.885 12.5551 22.6995 12.7461L18.9363 16.6919C18.7513 16.8819 18.4953 17 18.2128 17C17.6472 17 17.1892 16.5296 17.1892 15.9488C17.1892 15.6587 17.3037 15.3958 17.4892 15.2058L19.4939 13.0553H10.0265C9.45951 13.0553 9 12.5833 9 12.001C9 11.4187 9.45951 10.9468 10.0265 10.9468V10.9458Z" fill="#386DF7"/>
</svg>
