<svg width="32" height="32" viewBox="0 0 32 32" fill="none" xmlns="http://www.w3.org/2000/svg">
<path fill-rule="evenodd" clip-rule="evenodd" d="M16 30.6666C24.0971 30.6666 30.6666 24.097 30.6666 15.9999C30.6666 7.90282 24.0971 1.33325 16 1.33325C7.90287 1.33325 1.3333 7.90282 1.3333 15.9999C1.3333 24.097 7.90287 30.6666 16 30.6666ZM16.5712 17.7758C17.2294 18.434 18.2229 18.5955 19.0426 18.1732C19.8746 17.7634 20.8682 17.9248 21.5139 18.5706L23.7245 20.7812C23.799 20.8557 23.8611 20.955 23.8984 21.0668C24.0225 21.4518 23.8238 21.8616 23.4389 21.9982L21.4518 22.6564C19.5393 23.2898 17.4406 22.793 16.0248 21.3773L10.1631 15.5156C8.85913 14.2116 8.53623 12.2122 9.35587 10.5605L10.2873 8.71005C10.3245 8.63554 10.3742 8.57344 10.4239 8.52377C10.7095 8.23814 11.169 8.23814 11.4671 8.52377L13.8018 10.8585C14.46 11.5167 14.6215 12.5102 14.1992 13.3299C13.777 14.1495 13.9508 15.1554 14.5966 15.8012L16.5712 17.7758Z" fill="#C4703E"/>
</svg>
