<svg width="24" height="24" viewBox="0 0 24 24" fill="none" xmlns="http://www.w3.org/2000/svg">
<path fill-rule="evenodd" clip-rule="evenodd" d="M12 23C18.0728 23 23 18.0728 23 12C23 5.92718 18.0728 1 12 1C5.92719 1 1.00001 5.92718 1.00001 12C1.00001 18.0728 5.92719 23 12 23ZM12.4285 13.3319C12.9221 13.8256 13.6672 13.9467 14.282 13.63C14.906 13.3226 15.6511 13.4437 16.1355 13.928L17.7934 15.5859C17.8493 15.6418 17.8959 15.7163 17.9238 15.8002C18.0169 16.0889 17.8679 16.3963 17.5792 16.4987L16.0889 16.9924C14.6545 17.4674 13.0804 17.0948 12.0186 16.033L7.62236 11.6367C6.64438 10.6588 6.4022 9.15919 7.01693 7.92041L7.71549 6.5326C7.74344 6.47672 7.78069 6.43014 7.81795 6.39289C8.03218 6.17866 8.37681 6.17866 8.60035 6.39289L10.3514 8.14394C10.845 8.63759 10.9661 9.38273 10.6495 9.99746C10.3328 10.6122 10.4632 11.3666 10.9475 11.851L12.4285 13.3319Z" fill="#B70D18"/>
</svg>
