<svg width="24" height="24" viewBox="0 0 24 24" fill="none" xmlns="http://www.w3.org/2000/svg">
<path d="M17.8949 16.3773C16.1051 17.4591 14.1402 18 12 18C9.85985 18 7.89489 17.4591 6.10511 16.3773C4.31534 15.2955 2.94697 13.8364 2 12C2.94697 10.1636 4.31534 8.70455 6.10511 7.62273C7.89489 6.54091 9.85985 6 12 6C14.1402 6 16.1051 6.54091 17.8949 7.62273C19.6847 8.70455 21.053 10.1636 22 12C21.053 13.8364 19.6847 15.2955 17.8949 16.3773Z" stroke="#333333"/>
<path d="M11.998 8.5C12.9788 8.50006 13.7963 8.83675 14.4795 9.51855C15.1626 10.2003 15.5 11.0175 15.5 11.998C15.4999 12.9788 15.1633 13.7963 14.4814 14.4795C13.7997 15.1626 12.9825 15.5 12.002 15.5C11.0212 15.4999 10.2037 15.1633 9.52051 14.4814C8.83744 13.7997 8.5 12.9825 8.5 12.002C8.50006 11.0212 8.83675 10.2037 9.51855 9.52051C10.2003 8.83744 11.0175 8.5 11.998 8.5Z" stroke="#333333"/>
</svg>
