<svg width="24" height="24" viewBox="0 0 24 24" fill="none" xmlns="http://www.w3.org/2000/svg">
<path d="M10.9458 15.9735L10.9458 6.50611L6.79832 10.5183C6.60781 10.7038 6.34489 10.8188 6.05475 10.8188C5.76308 10.8188 5.49913 10.7033 5.30914 10.5163L5.30605 10.5133C5.11708 10.3278 5 10.0723 5 9.79024C5 9.50673 5.11811 9.24973 5.30914 9.06372L11.2549 3.30051C11.4459 3.115 11.7094 3 12.0005 3C12.2917 3 12.5551 3.115 12.7461 3.30051L18.6919 9.06372C18.8819 9.24873 19 9.50473 19 9.78724C19 10.3528 18.5296 10.8108 17.9488 10.8108C17.6587 10.8108 17.3958 10.6963 17.2058 10.5108L13.0553 6.50611L13.0553 15.9735C13.0553 16.5405 12.5833 17 12.001 17C11.4187 17 10.9468 16.5405 10.9468 15.9735L10.9458 15.9735Z" fill="#386DF7"/>
<path d="M3 16V19C3 19.5523 3.44772 20 4 20H20C20.5523 20 21 19.5523 21 19V16" stroke="#386DF7" stroke-width="2" stroke-linecap="round"/>
</svg>
