<svg width="24" height="24" viewBox="0 0 24 24" fill="none" xmlns="http://www.w3.org/2000/svg">
<path fill-rule="evenodd" clip-rule="evenodd" d="M12 1L3 3V12.6526C3 15.8371 4.70416 18.7975 7.50244 20.4785L11.4045 22.8319C11.7724 23.056 12.2276 23.056 12.5955 22.8319L16.4976 20.4785C19.2958 18.7882 21 15.8371 21 12.6526V3L12 1Z" fill="#B70D18"/>
<path d="M12 7C7.63688 7 6 11 6 11C6 11 7.63688 15 12 15C15.2738 15 18 11 18 11C18 11 15.2738 7 12 7ZM12 12.9972C10.8937 12.9972 10.0019 12.1001 10.0019 11C10.0019 9.89421 10.8993 9.00283 12 9.00283C13.1007 9.00283 13.9981 9.89985 13.9981 11C13.9981 12.1058 13.1063 12.9972 12 12.9972Z" fill="white"/>
</svg>
