<svg width="24" height="24" viewBox="0 0 24 24" fill="none" xmlns="http://www.w3.org/2000/svg">
<path d="M20.4089 5.82676L15.0443 1.39137C14.7394 1.13978 14.3487 1 13.958 1H5.08679C3.01906 1 3 1.13978 3 3.1059V20.8941C3 22.8602 3.01906 23 5.08679 23H18.9129C20.9806 23 20.9997 22.8602 20.9997 20.8941V7.07541C21.0092 6.60018 20.7901 6.14357 20.4089 5.82676Z" fill="#B70D18"/>
<path d="M12 9C7.63688 9 6 13 6 13C6 13 7.63688 17 12 17C15.2738 17 18 13 18 13C18 13 15.2738 9 12 9ZM12 14.9972C10.8937 14.9972 10.0019 14.1001 10.0019 13C10.0019 11.8942 10.8993 11.0028 12 11.0028C13.1007 11.0028 13.9981 11.8999 13.9981 13C13.9981 14.1058 13.1063 14.9972 12 14.9972Z" fill="white"/>
</svg>
