<svg width="24" height="24" viewBox="0 0 24 24" fill="none" xmlns="http://www.w3.org/2000/svg">
<path fill-rule="evenodd" clip-rule="evenodd" d="M23.45 20.21L12.61 2.48001C12.27 1.92001 11.54 1.75001 10.99 2.09001C10.82 2.20001 10.67 2.35001 10.57 2.52001L0.72003 20.25C0.40003 20.82 0.610021 21.54 1.18002 21.86C1.36002 21.96 1.55003 22.01 1.75003 22.01H22.44C23.09 22.01 23.62 21.48 23.62 20.83C23.62 20.61 23.56 20.4 23.45 20.21ZM11.56 19.65C10.91 19.65 10.38 19.12 10.38 18.47C10.38 17.82 10.91 17.29 11.56 17.29C12.21 17.29 12.74 17.82 12.74 18.47C12.74 19.12 12.21 19.65 11.56 19.65ZM12.74 14.92C12.74 15.57 12.21 16.1 11.56 16.1C10.91 16.1 10.38 15.57 10.38 14.92V9.01001C10.38 8.36001 10.91 7.83001 11.56 7.83001C12.21 7.83001 12.74 8.36001 12.74 9.01001V14.92Z" fill="#B70D18"/>
</svg>
