<svg width="210" height="32" viewBox="0 0 210 32" fill="none" xmlns="http://www.w3.org/2000/svg">
<path fill-rule="evenodd" clip-rule="evenodd" d="M177.774 19.1397C177.054 18.3799 176.116 18 174.96 18C173.742 18 172.777 18.3872 172.065 19.1616C171.361 19.9287 171.008 20.904 171.008 22.0875C171.008 23.3075 171.368 24.2937 172.088 25.0462C172.816 25.7987 173.765 26.1749 174.937 26.1749C176.101 26.1749 177.046 25.7987 177.774 25.0462C178.501 24.2864 178.865 23.3002 178.865 22.0875C178.865 20.8747 178.501 19.8921 177.774 19.1397ZM173.133 19.9506C173.585 19.4173 174.186 19.1506 174.937 19.1506C175.695 19.1506 176.296 19.4173 176.74 19.9506C177.192 20.4766 177.418 21.1852 177.418 22.0765C177.418 22.9678 177.192 23.6837 176.74 24.2243C176.296 24.7576 175.703 25.0243 174.96 25.0243C174.186 25.0243 173.574 24.7576 173.122 24.2243C172.678 23.691 172.456 22.9714 172.456 22.0655C172.456 21.1816 172.682 20.4766 173.133 19.9506ZM196.801 25.9887L193.643 18.1754H192.115L188.956 25.9887H190.438L191.242 23.9175H194.481L195.262 25.9887H196.801ZM192.884 19.6L194.102 22.8874H191.609L192.884 19.6ZM199.651 25.9886L202.327 22.482L203.211 23.4244V25.9886H204.647V23.4244L205.532 22.482L208.208 25.9886H210L206.462 21.4957L209.609 18.1863H207.841L204.647 21.693V18.1863H203.211V21.693L200.018 18.1863H198.249L201.397 21.4957L197.859 25.9886H199.651ZM187.696 27.9283H186.306V25.9886H180.976V27.9283H179.586V24.8051H180.379C180.693 24.2791 180.949 23.512 181.148 22.5039C181.347 21.4957 181.447 20.4583 181.447 19.3917V18.1863H186.777V24.8051H187.696V27.9283ZM185.341 24.8051V19.3698H182.848V19.841C182.848 20.7834 182.756 21.7222 182.573 22.6573C182.396 23.5851 182.178 24.301 181.918 24.8051H185.341ZM163.565 18.1863H167.115C167.995 18.1863 168.688 18.3872 169.194 18.789C169.707 19.1835 169.963 19.7753 169.963 20.5643C169.963 21.3094 169.726 21.9012 169.251 22.3395C168.776 22.7705 168.129 22.986 167.31 22.986H165.001V25.9886H163.565V18.1863ZM165.001 19.326V21.8793H167C168.041 21.8793 168.562 21.4519 168.562 20.5971C168.562 19.7497 167.999 19.326 166.873 19.326H165.001ZM161.616 25.9886V18.1863H155V25.9886H156.436V19.3698H160.18V25.9886H161.616Z" fill="white"/>
<path fill-rule="evenodd" clip-rule="evenodd" d="M166.691 5C167.812 5 168.72 5.38575 169.418 6.15726C170.122 6.92134 170.475 7.9191 170.475 9.15054C170.475 10.382 170.122 11.3835 169.418 12.155C168.713 12.919 167.797 13.3011 166.669 13.3011C165.534 13.3011 164.614 12.919 163.91 12.155C163.212 11.3909 162.864 10.3894 162.864 9.15054C162.864 7.94878 163.205 6.95843 163.887 6.17951C164.577 5.39317 165.512 5 166.691 5ZM166.669 6.16838C165.942 6.16838 165.36 6.43915 164.922 6.98069C164.484 7.51481 164.266 8.23067 164.266 9.12829C164.266 10.0482 164.481 10.7789 164.911 11.3204C165.349 11.8619 165.942 12.1327 166.691 12.1327C167.411 12.1327 167.986 11.8619 168.416 11.3204C168.854 10.7714 169.073 10.0444 169.073 9.13941C169.073 8.23438 168.854 7.51481 168.416 6.98069C167.986 6.43915 167.404 6.16838 166.669 6.16838ZM193.07 13.1119L190.01 5.17798H188.53L185.47 13.1119H186.906L187.684 11.0088H190.822L191.579 13.1119H193.07ZM189.276 6.62455L190.455 9.96279H188.041L189.276 6.62455ZM199.631 13.1119H201.022V5.18918H195.847L195.692 9.78482C195.669 10.4228 195.606 10.9235 195.502 11.287C195.399 11.6431 195.28 11.8731 195.146 11.9769C195.013 12.0808 194.839 12.1327 194.623 12.1327C194.408 12.1327 194.227 12.103 194.078 12.0437V13.1119C194.367 13.2084 194.646 13.2566 194.913 13.2566C195.521 13.2566 196.014 13.0044 196.393 12.4999C196.778 11.9955 196.994 11.2166 197.038 10.1632L197.183 6.39094H199.631V13.1119ZM185.283 5.18919V6.39095H182.757V13.1119H181.366V6.39095H178.84V5.18919H185.283ZM175.413 5.18919H171.974V13.1119H173.365V10.063H175.602C176.396 10.063 177.023 9.84417 177.483 9.40649C177.942 8.96139 178.172 8.36051 178.172 7.60384C178.172 6.80267 177.924 6.20178 177.427 5.8012C176.937 5.39319 176.266 5.18919 175.413 5.18919ZM173.365 8.93914V6.34644H175.179C176.27 6.34644 176.815 6.7767 176.815 7.63723C176.815 8.50517 176.31 8.93914 175.302 8.93914H173.365ZM161.409 13.1119V5.18917H155V13.1119H156.391V6.39094H160.018V13.1119H161.409Z" fill="white"/>
<path d="M139.957 0L139.957 32" stroke="#CCCCCC" stroke-width="0.5"/>
<g clip-path="url(#clip0_5061_66583)">
<path d="M4.00922 20.6338C4.20178 24.1385 6.01188 26.3722 8.70778 26.3722C10.7105 26.3722 12.174 25.3324 12.9442 23.4452H16.911C15.9097 27.5276 12.9057 29.9539 8.70778 29.9539C3.50855 29.9539 0.0423889 25.987 0.0423889 19.825C0.0423889 13.6245 3.47004 9.69614 8.66926 9.69614C13.7915 9.69614 17.0266 13.4319 17.0266 19.5169C17.0266 19.8635 17.0265 20.2486 16.9881 20.6338H4.00922ZM8.66926 13.1238C6.28147 13.1238 4.5869 14.7798 4.12475 17.5143H13.1367C12.7516 14.7413 11.1341 13.1238 8.66926 13.1238Z" fill="white"/>
<path d="M31.1482 10.0813H35.1149L28.2211 29.5688H24.1773L17.2835 10.0813H21.3273L26.257 24.0614L31.1482 10.0813Z" fill="white"/>
<path d="M39.3372 20.6338C39.5298 24.1385 41.3399 26.3722 44.0358 26.3722C46.0385 26.3722 47.502 25.3324 48.2722 23.4452H52.239C51.2377 27.5276 48.2337 29.9539 44.0358 29.9539C38.8366 29.9539 35.3704 25.987 35.3704 19.825C35.3704 13.6245 38.7981 9.69614 43.9973 9.69614C49.1195 9.69614 52.3546 13.4319 52.3546 19.5169C52.3546 19.8635 52.3546 20.2486 52.3161 20.6338H39.3372ZM43.9973 13.1238C41.6095 13.1238 39.9149 14.7798 39.4528 17.5143H48.4648C48.0796 14.7413 46.4621 13.1238 43.9973 13.1238Z" fill="white"/>
<path d="M55.4525 29.5688V10.0813H59.3808V12.2765C60.3436 10.813 61.8456 10.0813 64.0023 10.0813H66.8523V13.74H64.3874C61.0369 13.74 59.3808 15.3191 59.3808 19.1318V29.5688H55.4525Z" fill="white"/>
<path d="M70.9247 7.38538C69.3457 7.38538 68.2673 6.2685 68.2673 4.7665C68.2673 3.18747 69.3457 2.10912 70.9247 2.10912C72.4267 2.10912 73.5821 3.18747 73.5821 4.7665C73.5821 6.2685 72.4267 7.38538 70.9247 7.38538ZM68.9606 29.5688V10.0813H72.8889V29.5688H68.9606Z" fill="white"/>
<path d="M88.8331 10.0813H92.7615V29.5687H88.8331V27.5276C87.6007 29.0681 85.9062 29.9539 83.8264 29.9539C79.0124 29.9539 75.9699 25.987 75.9699 19.7865C75.9699 13.6245 79.0509 9.69614 83.8264 9.69614C85.9062 9.69614 87.6007 10.5819 88.8331 12.1225V10.0813ZM84.4426 26.3337C87.1771 26.3337 88.9486 23.7918 88.9486 19.7865C88.9486 15.8582 87.1771 13.3164 84.4426 13.3164C81.7083 13.3164 79.9752 15.8197 79.9752 19.7865C79.9752 23.8304 81.7083 26.3337 84.4426 26.3337Z" fill="white"/>
<path d="M97.9457 20.4087V2.00412H100.129V20.4087H97.9457Z" fill="#CAD1F9"/>
<path d="M104.632 5.23807C103.686 5.23807 103.054 4.60706 103.054 3.68683C103.054 2.7666 103.686 2.1093 104.632 2.1093C105.5 2.1093 106.184 2.7666 106.184 3.68683C106.184 4.60706 105.5 5.23807 104.632 5.23807ZM103.528 20.4087V7.26256H105.71V20.4087H103.528Z" fill="#CAD1F9"/>
<path d="M114.5 3.94975C113.317 3.94975 112.712 4.55446 112.712 5.7639V7.26256H116.471V9.23447H112.712V20.4087H110.53V9.23447H107.506V7.26256H110.53V5.60615C110.53 3.29244 111.845 2.00412 114.131 2.00412H116.945V3.94975H114.5Z" fill="#CAD1F9"/>
<path d="M119.423 14.2037C119.528 16.9381 120.895 18.6733 122.919 18.6733C124.366 18.6733 125.47 17.8583 126.049 16.4123H128.283C127.547 19.1203 125.601 20.6715 122.919 20.6715C119.475 20.6715 117.214 18.0161 117.214 13.8093C117.214 9.62887 119.449 6.99965 122.893 6.99965C126.232 6.99965 128.362 9.5237 128.362 13.5727C128.362 13.7831 128.362 13.9933 128.335 14.2037H119.423ZM122.893 8.97156C121.079 8.97156 119.79 10.2862 119.502 12.3895H126.153C125.917 10.2599 124.708 8.97156 122.893 8.97156Z" fill="#CAD1F9"/>
</g>
<defs>
<clipPath id="clip0_5061_66583">
<rect width="128.381" height="28" fill="white" transform="translate(0 2)"/>
</clipPath>
</defs>
</svg>
