<svg width="184" height="40" viewBox="0 0 184 40" fill="none" xmlns="http://www.w3.org/2000/svg">
<g clip-path="url(#clip0_4619_42862)">
<path d="M5.7275 26.6197C6.00259 31.6264 8.58846 34.8174 12.4397 34.8174C15.3007 34.8174 17.3915 33.332 18.4917 30.6361H24.1587C22.7282 36.468 18.4368 39.9341 12.4397 39.9341C5.01227 39.9341 0.0606079 34.2672 0.0606079 25.4644C0.0606079 16.6064 4.95725 10.9945 12.3847 10.9945C19.7022 10.9945 24.3237 16.3313 24.3237 25.0242C24.3237 25.5193 24.3237 26.0695 24.2687 26.6197H5.7275ZM12.3847 15.8912C8.97359 15.8912 6.55277 18.2569 5.89255 22.1633H18.7668C18.2166 18.2019 15.9059 15.8912 12.3847 15.8912Z" fill="white"/>
<path d="M44.4974 11.5447H50.1642L40.3159 39.3839H34.539L24.6907 11.5447H30.4676L37.5101 31.5163L44.4974 11.5447Z" fill="white"/>
<path d="M56.1961 26.6197C56.4712 31.6264 59.057 34.8174 62.9083 34.8174C65.7693 34.8174 67.86 33.332 68.9603 30.6361H74.6272C73.1967 36.468 68.9053 39.9341 62.9083 39.9341C55.4808 39.9341 50.5291 34.2672 50.5291 25.4644C50.5291 16.6064 55.4258 10.9945 62.8533 10.9945C70.1707 10.9945 74.7922 16.3313 74.7922 25.0242C74.7922 25.5193 74.7922 26.0695 74.7373 26.6197H56.1961ZM62.8533 15.8912C59.4422 15.8912 57.0214 18.2569 56.3611 22.1633H69.2354C68.6852 18.2019 66.3744 15.8912 62.8533 15.8912Z" fill="white"/>
<path d="M79.2178 39.3839V11.5447H84.8296V14.6807C86.2051 12.59 88.3508 11.5447 91.4318 11.5447H95.5032V16.7714H91.982C87.1955 16.7714 84.8296 19.0272 84.8296 24.474V39.3839H79.2178Z" fill="white"/>
<path d="M101.321 7.69342C99.0653 7.69342 97.5248 6.09788 97.5248 3.95216C97.5248 1.69641 99.0653 0.155899 101.321 0.155899C103.467 0.155899 105.117 1.69641 105.117 3.95216C105.117 6.09788 103.467 7.69342 101.321 7.69342ZM98.5151 39.384V11.5447H104.127V39.384H98.5151Z" fill="white"/>
<path d="M126.904 11.5447H132.516V39.3839H126.904V36.468C125.144 38.6687 122.723 39.9341 119.752 39.9341C112.875 39.9341 108.528 34.2672 108.528 25.4093C108.528 16.6064 112.93 10.9945 119.752 10.9945C122.723 10.9945 125.144 12.2599 126.904 14.4607V11.5447ZM120.632 34.7625C124.539 34.7625 127.069 31.1312 127.069 25.4093C127.069 19.7974 124.539 16.1663 120.632 16.1663C116.726 16.1663 114.25 19.7425 114.25 25.4093C114.25 31.1863 116.726 34.7625 120.632 34.7625Z" fill="white"/>
<path d="M139.922 26.2981V0.00588989H143.041V26.2981H139.922Z" fill="#CAD1F9"/>
<path d="M149.475 4.6258C148.122 4.6258 147.22 3.72436 147.22 2.40975C147.22 1.09513 148.122 0.156128 149.475 0.156128C150.714 0.156128 151.691 1.09513 151.691 2.40975C151.691 3.72436 150.714 4.6258 149.475 4.6258ZM147.897 26.2981V7.51794H151.015V26.2981H147.897Z" fill="#CAD1F9"/>
<path d="M163.571 2.78535C161.882 2.78535 161.018 3.64923 161.018 5.377V7.51794H166.388V10.335H161.018V26.2981H157.899V10.335H153.58V7.51794H157.899V5.15164C157.899 1.84635 159.778 0.00588989 163.045 0.00588989H167.064V2.78535H163.571Z" fill="#CAD1F9"/>
<path d="M170.604 17.4339C170.754 21.3401 172.707 23.8191 175.599 23.8191C177.665 23.8191 179.242 22.6547 180.069 20.589H183.261C182.21 24.4576 179.43 26.6736 175.599 26.6736C170.679 26.6736 167.449 22.8801 167.449 16.8705C167.449 10.8984 170.641 7.14235 175.562 7.14235C180.332 7.14235 183.374 10.7481 183.374 16.5324C183.374 16.8329 183.374 17.1333 183.336 17.4339H170.604ZM175.562 9.95937C172.97 9.95937 171.129 11.8374 170.717 14.8422H180.219C179.882 11.7998 178.154 9.95937 175.562 9.95937Z" fill="#CAD1F9"/>
</g>
<defs>
<clipPath id="clip0_4619_42862">
<rect width="183.401" height="40" fill="white"/>
</clipPath>
</defs>
</svg>
