<svg width="421" height="46" viewBox="0 0 421 46" fill="none" xmlns="http://www.w3.org/2000/svg">
<g clip-path="url(#clip0_5061_68273)">
<path d="M6.58661 30.6127C6.90296 36.3704 9.8767 40.04 14.3057 40.04C17.5958 40.04 20.0001 38.3318 21.2655 35.2315H27.7824C26.1374 41.9382 21.2022 45.9243 14.3057 45.9243C5.76408 45.9243 0.0696754 39.4073 0.0696754 29.284C0.0696754 19.0973 5.70081 12.6437 14.2424 12.6437C22.6575 12.6437 27.9722 18.781 27.9722 28.7778C27.9722 29.3472 27.9722 29.9799 27.909 30.6127H6.58661ZM14.2424 18.2748C10.3196 18.2748 7.53566 20.9954 6.77641 25.4878H21.5818C20.9491 20.9322 18.2917 18.2748 14.2424 18.2748Z" fill="white"/>
<path d="M51.172 13.2764H57.6888L46.3633 45.2915H39.7199L28.3944 13.2764H35.0378L43.1366 36.2438L51.172 13.2764Z" fill="white"/>
<path d="M64.6255 30.6127C64.9418 36.3704 67.9156 40.04 72.3446 40.04C75.6346 40.04 78.039 38.3318 79.3043 35.2315H85.8213C84.1763 41.9382 79.2411 45.9243 72.3446 45.9243C63.8029 45.9243 58.1085 39.4073 58.1085 29.284C58.1085 19.0973 63.7397 12.6437 72.2813 12.6437C80.6964 12.6437 86.0111 18.781 86.0111 28.7778C86.0111 29.3472 86.0111 29.9799 85.9479 30.6127H64.6255ZM72.2813 18.2748C68.3585 18.2748 65.5746 20.9954 64.8153 25.4878H79.6207C78.988 20.9322 76.3306 18.2748 72.2813 18.2748Z" fill="white"/>
<path d="M91.1005 45.2915V13.2764H97.5541V16.8828C99.1359 14.4785 101.604 13.2764 105.147 13.2764H109.829V19.2871H105.779C100.275 19.2871 97.5541 21.8813 97.5541 28.1451V45.2915H91.1005Z" fill="white"/>
<path d="M116.519 8.84742C113.925 8.84742 112.153 7.01255 112.153 4.54498C112.153 1.95086 113.925 0.179276 116.519 0.179276C118.987 0.179276 120.885 1.95086 120.885 4.54498C120.885 7.01255 118.987 8.84742 116.519 8.84742ZM113.292 45.2915V13.2764H119.746V45.2915H113.292Z" fill="white"/>
<path d="M145.94 13.2764H152.394V45.2915H145.94V41.9382C143.916 44.469 141.132 45.9243 137.715 45.9243C129.806 45.9243 124.808 39.4073 124.808 29.2206C124.808 19.0974 129.869 12.6437 137.715 12.6437C141.132 12.6437 143.916 14.0989 145.94 16.6298V13.2764ZM138.727 39.9768C143.22 39.9768 146.13 35.8008 146.13 29.2206C146.13 22.767 143.22 18.5912 138.727 18.5912C134.235 18.5912 131.388 22.7038 131.388 29.2206C131.388 35.8642 134.235 39.9768 138.727 39.9768Z" fill="white"/>
<path d="M160.911 30.2428V0.0067749H164.497V30.2428H160.911Z" fill="#CAD1F9"/>
<path d="M171.896 5.31967C170.341 5.31967 169.303 4.28302 169.303 2.77121C169.303 1.25941 170.341 0.17955 171.896 0.17955C173.321 0.17955 174.445 1.25941 174.445 2.77121C174.445 4.28302 173.321 5.31967 171.896 5.31967ZM170.081 30.2428V8.64563H173.667V30.2428H170.081Z" fill="#CAD1F9"/>
<path d="M188.107 3.20316C186.164 3.20316 185.17 4.19662 185.17 6.18355V8.64563H191.346V11.8852H185.17V30.2428H181.584V11.8852H176.617V8.64563H181.584V5.92439C181.584 2.1233 183.745 0.0067749 187.502 0.0067749H192.124V3.20316H188.107Z" fill="#CAD1F9"/>
<path d="M196.195 20.049C196.367 24.5412 198.614 27.3919 201.938 27.3919C204.315 27.3919 206.129 26.0529 207.08 23.6773H210.75C209.541 28.1262 206.344 30.6747 201.938 30.6747C196.281 30.6747 192.566 26.3122 192.566 19.4011C192.566 12.5331 196.237 8.2137 201.896 8.2137C207.382 8.2137 210.88 12.3603 210.88 19.0122C210.88 19.3579 210.88 19.7033 210.836 20.049H196.195ZM201.896 11.4533C198.916 11.4533 196.799 13.613 196.325 17.0685H207.252C206.864 13.5698 204.877 11.4533 201.896 11.4533Z" fill="#CAD1F9"/>
</g>
<defs>
<clipPath id="clip0_5061_68273">
<rect width="210.912" height="46" fill="white"/>
</clipPath>
</defs>
</svg>
